<?xml version="1.0" encoding="utf-8"?>
<svg id="master-artboard" viewBox="0 0 1400 980" xmlns="http://www.w3.org/2000/svg" width="1400px" height="980px" version="1.1" style="shape-rendering:geometricPrecision; text-rendering:geometricPrecision; image-rendering:optimizeQuality; fill-rule:evenodd; clip-rule:evenodd"><defs><path id="text-path-0" d="M 443.875 445.86517333984375 A 100 52 0 0 1 858.734375 445.86517333984375 A 100 52 0 0 1 443.875 445.86517333984375 Z" style="fill: none; stroke: red; stroke-width: 2;"/></defs><rect id="ee-background" x="0" y="0" width="1400" height="980" style="fill: white; fill-opacity: 0; pointer-events: none;"/><g><g transform="matrix(1.2291955947875977, 0, 0, 1.2291955947875977, -132.66075134277344, -13.76651573181151)"><g transform="matrix(1, 0, 0, 1, 0, 0)"><g transform="matrix(0.7814233899116516, -0.6936714053153992, 0.6936714053153992, 0.7814233899116516, -125.1762466430664, 290.7142333984375)"><path d="M 437.7035827636719 369.47796630859375 L 446.0442810058594 362.16900634765625 C 449.9601745605469 358.7375183105469 453.30743408203125 356.83697509765625 456.0860595703125 356.4674377441406 C 458.8640441894531 356.1072692871094 461.3624572753906 357.1932373046875 463.581298828125 359.7252502441406 C 465.1147155761719 361.4751281738281 465.8912353515625 363.3475341796875 465.910888671875 365.34246826171875 C 465.9305419921875 367.3374328613281 465.1524658203125 369.3222961425781 463.5766296386719 371.2970886230469 L 463.75457763671875 371.5001525878906 C 468.9093017578125 368.33929443359375 473.215576171875 368.7318420410156 476.6734313964844 372.6778259277344 C 478.9845275878906 375.3151550292969 479.89788818359375 378.157958984375 479.4134521484375 381.2062683105469 C 478.9296569824219 384.2451477050781 477.0832824707031 387.17059326171875 473.8743591308594 389.9825744628906 L 463.5782165527344 399.00506591796875 L 437.7035827636719 369.47796630859375 M 452.2119140625 379.1153259277344 L 457.8676452636719 374.1591796875 C 460.29437255859375 372.0326232910156 461.705322265625 370.12255859375 462.1004333496094 368.428955078125 C 462.4955139160156 366.7353820800781 461.9044189453125 364.98858642578125 460.3270568847656 363.1885681152344 C 458.87274169921875 361.5289611816406 457.2331848144531 360.8515930175781 455.4084167480469 361.1564636230469 C 453.5786437988281 361.46575927734375 451.3726501464844 362.75177001953125 448.79046630859375 365.0145568847656 L 443.7364196777344 369.44342041015625 L 452.2119140625 379.1153259277344 M 454.762451171875 382.0259094238281 L 464.44403076171875 393.0741271972656 L 470.6036682128906 387.67645263671875 C 472.99029541015625 385.58502197265625 474.3810729980469 383.55078125 474.7759704589844 381.57373046875 C 475.1708679199219 379.5966796875 474.50714111328125 377.62542724609375 472.7848205566406 375.6599426269531 C 471.17669677734375 373.8248596191406 469.3805847167969 373.0143127441406 467.3964538574219 373.2283935546875 C 465.41168212890625 373.4518737792969 463.16082763671875 374.6664123535156 460.6438293457031 376.8720703125 L 454.762451171875 382.0259094238281 ZM 501.84423828125 371.6759033203125 C 498.0361633300781 373.785400390625 494.3899841308594 374.2886047363281 490.90570068359375 373.18548583984375 C 487.4246520996094 372.08819580078125 484.5421447753906 369.4780578613281 482.2582092285156 365.3550720214844 C 479.9613342285156 361.2087707519531 479.1566467285156 357.3485412597656 479.8441467285156 353.7743835449219 C 480.5375061035156 350.197021484375 482.607421875 347.4537353515625 486.053955078125 345.54449462890625 C 489.27886962890625 343.758056640625 492.4181823730469 343.40606689453125 495.47186279296875 344.48858642578125 C 498.52557373046875 345.57110595703125 501.0151062011719 347.8501892089844 502.9404602050781 351.32586669921875 L 504.30694580078125 353.79266357421875 L 486.5757751464844 363.6149597167969 C 488.324951171875 366.5937805175781 490.360107421875 368.46533203125 492.6811828613281 369.22967529296875 C 494.99322509765625 369.99139404296875 497.4642639160156 369.6437683105469 500.0943603515625 368.18682861328125 C 502.8702392578125 366.64910888671875 505.2912902832031 364.553466796875 507.3575744628906 361.89984130859375 L 509.28131103515625 365.3725891113281 C 508.23455810546875 366.7298278808594 507.1669921875 367.8775634765625 506.0786437988281 368.8157958984375 C 504.9935607910156 369.75982666015625 503.5820617675781 370.71319580078125 501.84423828125 371.6759033203125 M 487.8089294433594 348.8363952636719 C 485.7445068359375 349.97998046875 484.4701843261719 351.566162109375 483.9859313964844 353.59490966796875 C 483.501708984375 355.6236572265625 483.80780029296875 357.8890686035156 484.90423583984375 360.3911437988281 L 498.36663818359375 352.9335632324219 C 497.0066223144531 350.47845458984375 495.4150085449219 348.8984680175781 493.5917663574219 348.1936950683594 C 491.77178955078125 347.4947204589844 489.84417724609375 347.7089538574219 487.8089294433594 348.8363952636719 ZM 536.7073974609375 355.82855224609375 L 529.9674072265625 338.0213928222656 C 529.1178588867188 335.77679443359375 527.972900390625 334.2962341308594 526.5326538085938 333.57965087890625 C 525.0924072265625 332.86309814453125 523.2843017578125 332.9166259765625 521.1082763671875 333.740234375 C 518.2277221679688 334.8305358886719 516.4110107421875 336.4056396484375 515.6580810546875 338.4655456542969 C 514.9075317382812 340.53167724609375 515.2107543945312 343.3572998046875 516.5677490234375 346.9424133300781 L 522.0333251953125 361.3826599121094 L 517.8714599609375 362.9579162597656 L 507.4535217285156 335.43353271484375 L 510.8391418457031 334.152099609375 L 512.9448852539062 337.65338134765625 L 513.1412963867188 337.57904052734375 C 513.4833984375 335.9027404785156 514.2828979492188 334.3990478515625 515.5397338867188 333.06793212890625 C 516.7989501953125 331.7430725097656 518.3762817382812 330.721923828125 520.2716674804688 330.0044860839844 C 523.5886840820312 328.7490234375 526.384765625 328.6031188964844 528.659912109375 329.5668029785156 C 530.943603515625 330.53436279296875 532.7509765625 332.77642822265625 534.0819702148438 336.29296875 L 540.8786010742188 354.249755859375 L 536.7073974609375 355.82855224609375 ZM 567.9918823242188 342.9362487792969 L 567.759033203125 342.99456787109375 C 566.4881591796875 346.3987731933594 563.8641357421875 348.5989990234375 559.8870239257812 349.5952453613281 C 556.1556396484375 350.52996826171875 552.9320678710938 349.9801330566406 550.2163696289062 347.9457092285156 C 547.5006103515625 345.91131591796875 545.5531005859375 342.5401611328125 544.373779296875 337.8323059082031 C 543.196044921875 333.1308898925781 543.3219604492188 329.21630859375 544.7514038085938 326.08856201171875 C 546.180908203125 322.9607849121094 548.7548828125 320.93115234375 552.4733276367188 319.99969482421875 C 556.3469848632812 319.02935791015625 559.6708374023438 319.6915283203125 562.4448852539062 321.9862060546875 L 562.7747192382812 321.9035949707031 L 562.0849609375 319.890869140625 L 561.4752807617188 317.9096374511719 L 558.564208984375 306.2886962890625 L 562.8905639648438 305.2049560546875 L 573.045166015625 345.742431640625 L 569.5239868164062 346.62451171875 L 567.9918823242188 342.9362487792969 M 559.5214233398438 345.8312683105469 C 562.476806640625 345.0909423828125 564.4164428710938 343.75286865234375 565.3403930664062 341.8169860839844 C 566.2708129882812 339.8795166015625 566.287353515625 337.11944580078125 565.389892578125 333.53680419921875 L 565.1614379882812 332.6249694824219 C 564.1489868164062 328.58319091796875 562.7531127929688 325.8642272949219 560.973876953125 324.4680480957031 C 559.1962280273438 323.0783386230469 556.8297729492188 322.753662109375 553.8743896484375 323.4939880371094 C 551.3394165039062 324.1289978027344 549.6463623046875 325.6011657714844 548.7953491210938 327.9105224609375 C 547.9443359375 330.2198486328125 547.9691772460938 333.17230224609375 548.869873046875 336.76788330078125 C 549.7835083007812 340.4151916503906 551.1421508789062 342.9991760253906 552.9456787109375 344.51983642578125 C 554.7427978515625 346.0421142578125 556.9346923828125 346.479248046875 559.5214233398438 345.8312683105469 ZM 594.5309448242188 342.6622619628906 C 590.2277221679688 343.32086181640625 586.6331787109375 342.5289001464844 583.7473754882812 340.28631591796875 C 580.862548828125 338.05035400390625 579.0636596679688 334.6028137207031 578.3505859375 329.9437255859375 C 577.6334838867188 325.25830078125 578.2168579101562 321.3584899902344 580.1007690429688 318.2442932128906 C 581.9912109375 315.1291198730469 584.8837890625 313.27349853515625 588.7784423828125 312.67742919921875 C 592.4226684570312 312.11968994140625 595.4893188476562 312.8778076171875 597.9783935546875 314.9517822265625 C 600.4674682617188 317.0257568359375 602.0125732421875 320.02655029296875 602.6137084960938 323.9541320800781 L 603.0403442382812 326.7416687011719 L 583.003662109375 329.8082275390625 C 583.6117553710938 333.2087097167969 584.8718872070312 335.66973876953125 586.7841186523438 337.1912841796875 C 588.688720703125 338.707275390625 591.1270141601562 339.2378234863281 594.0990600585938 338.782958984375 C 597.2359008789062 338.3028869628906 600.2333374023438 337.17645263671875 603.0913696289062 335.4036560058594 L 603.6919555664062 339.3279724121094 C 602.2396240234375 340.2381591796875 600.8403930664062 340.94464111328125 599.4942626953125 341.4474182128906 C 598.149169921875 341.9567565917969 596.4947509765625 342.3617248535156 594.5309448242188 342.6622619628906 M 589.283447265625 316.3735656738281 C 586.9506225585938 316.7305908203125 585.2054443359375 317.7766418457031 584.0479125976562 319.5117492675781 C 582.8904418945312 321.246826171875 582.3922119140625 323.4778747558594 582.5532836914062 326.20489501953125 L 597.7661743164062 323.8766174316406 C 597.341552734375 321.10223388671875 596.3963623046875 319.0685119628906 594.9304809570312 317.775390625 C 593.4656982421875 316.48883056640625 591.5833129882812 316.0215759277344 589.283447265625 316.3735656738281 ZM 619.0946044921875 339.30133056640625 L 605.7548828125 310.78912353515625 L 610.521484375 310.431640625 L 618.1487426757812 327.358642578125 C 619.8837280273438 331.32666015625 620.9195556640625 333.9064025878906 621.2562866210938 335.097900390625 L 621.4756469726562 335.0814514160156 C 621.59765625 334.12298583984375 622.069091796875 332.1187744140625 622.8899536132812 329.06884765625 C 623.7108154296875 326.0188903808594 625.56787109375 319.3580322265625 628.4611206054688 309.0862121582031 L 633.2277221679688 308.7287292480469 L 624.2899780273438 338.91168212890625 L 619.0946044921875 339.30133056640625 ZM 702.0082397460938 341.18865966796875 L 704.0816040039062 322.2618713378906 C 704.3429565429688 319.8761291503906 703.9944458007812 318.0372619628906 703.0361328125 316.7452087402344 C 702.0777587890625 315.45318603515625 700.4421997070312 314.68048095703125 698.1293334960938 314.4271240234375 C 695.0676879882812 314.0917053222656 692.7340698242188 314.6710510253906 691.1284790039062 316.16510009765625 C 689.5221557617188 317.665771484375 688.5103149414062 320.3213806152344 688.0928955078125 324.13189697265625 L 686.4115600585938 339.4801025390625 L 681.9879760742188 338.9955139160156 L 685.1927490234375 309.7405090332031 L 688.791259765625 310.13470458984375 L 689.0791625976562 314.2102966308594 L 689.2879028320312 314.2331848144531 C 690.3533325195312 312.8945617675781 691.748046875 311.91729736328125 693.4720458984375 311.3013610839844 C 695.1953125 310.69207763671875 697.0642700195312 310.4977722167969 699.078857421875 310.71844482421875 C 702.6044311523438 311.10467529296875 705.1622924804688 312.2433166503906 706.7525024414062 314.1343994140625 C 708.3486328125 316.0328063964844 708.9419555664062 318.8508605957031 708.532470703125 322.5885009765625 L 706.4417114257812 341.67431640625 L 702.0082397460938 341.18865966796875 ZM 744.6746826171875 318.9465026855469 L 744.1243286132812 321.7122802734375 L 738.6444091796875 321.27435302734375 C 739.01904296875 321.98785400390625 739.3003540039062 322.8799133300781 739.4883422851562 323.9505310058594 C 739.6763305664062 325.0211486816406 739.646728515625 326.1776123046875 739.3994750976562 327.4198913574219 C 738.8361206054688 330.2510681152344 737.4195556640625 332.31427001953125 735.1497802734375 333.6095275878906 C 732.88525390625 334.9126281738281 730.0660400390625 335.2284851074219 726.6921997070312 334.5570983886719 C 725.8356323242188 334.38665771484375 725.0418090820312 334.1573181152344 724.3106689453125 333.86907958984375 C 722.2586059570312 334.4803161621094 721.084228515625 335.5313415527344 720.7875366210938 337.0220947265625 C 720.630126953125 337.8132629394531 720.8373413085938 338.4628601074219 721.4091796875 338.97088623046875 C 721.9810180664062 339.47894287109375 723.05810546875 339.890380859375 724.640380859375 340.20526123046875 L 729.7501831054688 341.2220764160156 C 732.8756103515625 341.8440246582031 735.147705078125 342.97930908203125 736.5665893554688 344.6279296875 C 737.9776000976562 346.2817687988281 738.4332885742188 348.3641052246094 737.9336547851562 350.8748779296875 C 737.2987060546875 354.0656433105469 735.5325317382812 356.2461853027344 732.635009765625 357.4165344238281 C 729.7388916015625 358.5803527832031 725.8323364257812 358.67303466796875 720.9154052734375 357.694580078125 C 717.1361694335938 356.9425354003906 714.3663940429688 355.66064453125 712.6061401367188 353.84893798828125 C 710.8380737304688 352.0424499511719 710.2090454101562 349.857666015625 710.7190551757812 347.2945861816406 C 711.069091796875 345.5357360839844 711.9338989257812 344.12744140625 713.3135375976562 343.0697021484375 C 714.6866455078125 342.0106506347656 716.438720703125 341.45526123046875 718.5697631835938 341.4035339355469 C 717.8972778320312 340.92303466796875 717.3822021484375 340.2835388183594 717.0244750976562 339.48504638671875 C 716.6615600585938 338.6786804199219 716.5724487304688 337.8113098144531 716.7572021484375 336.8828430175781 C 716.9667358398438 335.83013916015625 717.4313354492188 334.96417236328125 718.1510620117188 334.284912109375 C 718.8707885742188 333.60565185546875 719.9089965820312 333.0169372558594 721.265625 332.518798828125 C 719.8971557617188 331.6075439453125 718.8885498046875 330.3226318359375 718.23974609375 328.66412353515625 C 717.5988159179688 327.0003662109375 717.4669799804688 325.2204284667969 717.8443603515625 323.32427978515625 C 718.4727783203125 320.16619873046875 719.905517578125 317.9192810058594 722.142578125 316.5835266113281 C 724.379638671875 315.2477722167969 727.2373657226562 314.9259948730469 730.7158203125 315.6181945800781 C 732.2196655273438 315.9174499511719 733.5445556640625 316.3646240234375 734.6904296875 316.9596862792969 L 744.6746826171875 318.9465026855469 M 714.9382934570312 348.0730285644531 C 714.6273193359375 349.6357116699219 715.0515747070312 350.953857421875 716.2109985351562 352.0274658203125 C 717.3651733398438 353.09320068359375 719.1715087890625 353.8706970214844 721.6299438476562 354.35992431640625 C 725.3045654296875 355.0911560058594 728.130615234375 355.0825500488281 730.1080322265625 354.3340759277344 C 732.0906982421875 353.59344482421875 733.2694091796875 352.2816162109375 733.6441040039062 350.3985290527344 C 733.955078125 348.8358459472656 733.6898803710938 347.6580810546875 732.848388671875 346.86529541015625 C 732.001708984375 346.06463623046875 730.2445068359375 345.3988952636719 727.5768432617188 344.8680419921875 L 722.3297119140625 343.8238830566406 C 720.3485717773438 343.4296569824219 718.711181640625 343.59661865234375 717.41748046875 344.3247985839844 C 716.1173095703125 345.05169677734375 715.2908935546875 346.30108642578125 714.9382934570312 348.0730285644531 M 722.1812133789062 324.07513427734375 C 721.7791137695312 326.09552001953125 722.0468139648438 327.7393493652344 722.984130859375 329.00665283203125 C 723.916259765625 330.2661437988281 725.40234375 331.0988464355469 727.4423217773438 331.5047912597656 C 731.7053833007812 332.3531188964844 734.2493896484375 330.70458984375 735.0742797851562 326.5592041015625 C 735.9369506835938 322.2242126464844 734.2105712890625 319.6273498535156 729.8952026367188 318.76861572265625 C 727.8421020507812 318.36004638671875 726.1498413085938 318.5976867675781 724.8184204101562 319.4814758300781 C 723.4935302734375 320.3666076660156 722.6144409179688 321.8978271484375 722.1812133789062 324.07513427734375 ZM 756.3843383789062 353.4254455566406 C 752.2142333984375 352.17572021484375 749.3062744140625 349.9192810058594 747.660400390625 346.6560974121094 C 746.0126342773438 343.3993225097656 745.8652954101562 339.5134582519531 747.2183837890625 334.99853515625 C 748.5791015625 330.4580383300781 750.7779541015625 327.1848449707031 753.8150024414062 325.1789245605469 C 756.8583984375 323.1748962402344 760.2671508789062 322.7384338378906 764.0413208007812 323.8695068359375 C 767.5728149414062 324.9278259277344 770.0183715820312 326.9273986816406 771.3780517578125 329.8681640625 C 772.7377319335938 332.8089599609375 772.8472900390625 336.182373046875 771.7066650390625 339.98846435546875 L 770.8970947265625 342.68975830078125 L 751.4802856445312 336.8708190917969 C 750.5719604492188 340.20367431640625 750.6554565429688 342.96728515625 751.730712890625 345.16168212890625 C 752.8015747070312 347.3477783203125 754.7770385742188 348.87237548828125 757.6571655273438 349.7355041503906 C 760.6969604492188 350.646484375 763.8878784179688 350.91375732421875 767.2299194335938 350.537353515625 L 766.0902099609375 354.3402404785156 C 764.387939453125 354.5399475097656 762.8209228515625 354.5783996582031 761.3892822265625 354.45556640625 C 759.9556884765625 354.3391418457031 758.287353515625 353.9957580566406 756.3843383789062 353.4254455566406 M 762.9130249023438 327.4252624511719 C 760.6524047851562 326.7477722167969 758.6272583007812 326.9447326660156 756.8377075195312 328.0160827636719 C 755.0481567382812 329.08746337890625 753.6416625976562 330.8895263671875 752.6181640625 333.42230224609375 L 767.3603515625 337.8403625488281 C 768.1660766601562 335.1518249511719 768.1839599609375 332.90924072265625 767.4140014648438 331.1125793457031 C 766.64208984375 329.3222961425781 765.1417846679688 328.09320068359375 762.9130249023438 327.4252624511719 ZM 792.3369140625 366.6122741699219 L 799.9825439453125 349.1747741699219 C 800.9462890625 346.9767761230469 801.1644287109375 345.117919921875 800.6369018554688 343.59820556640625 C 800.1094360351562 342.0784606933594 798.7802734375 340.8514709472656 796.6494750976562 339.91717529296875 C 793.8286743164062 338.6803894042969 791.4286499023438 338.53436279296875 789.4494018554688 339.4790954589844 C 787.4674072265625 340.4299011230469 785.706787109375 342.6606750488281 784.16748046875 346.17138671875 L 777.9674682617188 360.3118591308594 L 773.8920288085938 358.5249328613281 L 785.7097778320312 331.5719299316406 L 789.025146484375 333.0255432128906 L 788.0794067382812 337.0003356933594 L 788.271728515625 337.0846862792969 C 789.6891479492188 336.12652587890625 791.3125 335.6117248535156 793.1417846679688 335.540283203125 C 794.9684448242188 335.4749450683594 796.809814453125 335.84918212890625 798.6658935546875 336.66302490234375 C 801.9140625 338.0871887207031 804.0136108398438 339.93951416015625 804.964599609375 342.2200012207031 C 805.9190063476562 344.5092468261719 805.6412353515625 347.3756408691406 804.1314086914062 350.8191833496094 L 796.4215698242188 368.4031982421875 L 792.3369140625 366.6122741699219 ZM 813.897705078125 379.4917907714844 C 810.2938232421875 377.2202453613281 808.2024536132812 374.3495788574219 807.6234741210938 370.8797302246094 C 807.0465698242188 367.4190979003906 808.037841796875 363.658447265625 810.5973510742188 359.5977783203125 C 813.2208251953125 355.4355773925781 816.2527465820312 352.8507995605469 819.693115234375 351.8434753417969 C 823.1334838867188 350.8361511230469 826.7063598632812 351.500244140625 830.4117431640625 353.8357849121094 C 831.6129760742188 354.59295654296875 832.7296752929688 355.4780578613281 833.7618408203125 356.4911193847656 C 834.7974853515625 357.49853515625 835.5463256835938 358.39215087890625 836.0083618164062 359.1719665527344 L 832.8284301757812 361.6476745605469 C 832.2034912109375 360.788818359375 831.4696655273438 359.94012451171875 830.626953125 359.1016540527344 C 829.7786254882812 358.25958251953125 828.9766235351562 357.60040283203125 828.2208862304688 357.1240539550781 C 823.1619873046875 353.93536376953125 818.59912109375 355.5670166015625 814.5324096679688 362.0189514160156 C 812.605712890625 365.07574462890625 811.7444458007812 367.8111572265625 811.9486694335938 370.2252197265625 C 812.147216796875 372.6357421875 813.4591064453125 374.6052551269531 815.8842163085938 376.13385009765625 C 817.9596557617188 377.4420166015625 820.3695678710938 378.33843994140625 823.1138305664062 378.82305908203125 L 821.007568359375 382.1646423339844 C 818.7943115234375 381.9753112792969 816.42431640625 381.0843505859375 813.897705078125 379.4917907714844 ZM 842.6376953125 362.5418701171875 L 846.128173828125 365.8076171875 L 839.3738403320312 382.46746826171875 C 837.7869262695312 386.23223876953125 836.536865234375 388.8514709472656 835.6236572265625 390.32513427734375 L 835.7843017578125 390.4754638671875 C 836.5787353515625 389.9679260253906 838.002197265625 389.1588439941406 840.0546875 388.0481872558594 C 842.1026611328125 386.9424133300781 848.5206909179688 383.6395263671875 859.3086547851562 378.1395568847656 L 862.7991333007812 381.4053039550781 L 830.66748046875 397.2324523925781 C 827.4885864257812 398.7956237792969 824.814453125 399.51190185546875 822.6451416015625 399.3812255859375 C 820.4758911132812 399.2505798339844 818.5028076171875 398.35400390625 816.7258911132812 396.6915283203125 C 815.7327880859375 395.7623596191406 814.8543701171875 394.73504638671875 814.090576171875 393.6095886230469 L 816.5364379882812 390.9953918457031 C 817.1066284179688 391.83013916015625 817.834716796875 392.6619873046875 818.720703125 393.490966796875 C 820.9600830078125 395.58612060546875 823.73193359375 395.8240966796875 827.036376953125 394.2048645019531 L 831.0892333984375 392.25885009765625 L 842.6376953125 362.5418701171875 Z" transform="matrix(0.6424558162689209, 0.4917140305042267, -0.4917140305042267, 0.6424558162689209, 243.7649688720703, -82.83672332763672)" style="fill: rgb(211, 207, 156); white-space: pre; color: rgb(51, 51, 51); fill-opacity: 0.63; stroke: rgb(0, 0, 0); stroke-width: 1; stroke-opacity: 0.25;"/><g transform="matrix(0.41178837418556213, 0.3039989769458771, -0.3039989769458771, 0.41178837418556213, 563.5456433413293, 175.6226725807731)"><path d="M177.5,324.5c-4.1-3.1-5.2-9.1-3.4-13.9s5.8-8.5,10.2-11.1c4.4-2.6,9.3-4.4,13.9-6.6c19.8-9.6,34.6-29,38.8-50.6&#10;&#9;&#9;&#9;c4.1-21.7-2.5-45.1-17.4-61.4c5.3,9.5,5.1,21.1,0.4,30.9s-14.4,17.1-25.1,18.9c4-9.4,7.1-19.6,8.8-29.6c1.7-10,1-20.8-4-29.6&#10;&#9;&#9;&#9;c-4.8-8.5-13.1-14.4-21.4-19.5c-8.3-5.1-17-10-23.6-17.2c-6.5-7.2-10.6-17.6-7.5-26.9c-16.3,14.8-27.9,35.1-32.1,56.7&#10;&#9;&#9;&#9;c-4.2,21.6-1.2,44.5,8.3,64.3c-9.9-3.5-18.3-10.2-23.6-19.2s-7.4-20.1-5.6-30.5c-10.5,19-15.3,40.8-11.6,62.2&#10;&#9;&#9;&#9;c1.9,11.1,6,22.2,14.1,30c4.8,4.6,10.9,7.8,16.8,11c5.9,3.2,11.9,6.4,16.6,11.2c4.7,4.7,8.2,11.2,7.7,17.9&#10;&#9;&#9;&#9;c4.6-1.5,7.4-6.9,7.8-11.7c0.4-4.8-1.2-9.6-3.4-14c-2.1-4.4-4.8-8.5-6.6-13s-2.7-9.6-1.1-14.2c2.3-6.8,9.8-11.1,17-10.7&#10;&#9;&#9;&#9;c7.2,0.4,13.7,5,17.8,11c2.5,3.7,4.1,8.2,3.2,12.5c-0.7,3.5-3.1,6.4-4.9,9.6c-4.1,7.1-5.4,15.7-3.8,23.7&#10;&#9;&#9;&#9;C165.5,312.5,171,319.6,177.5,324.5z" transform="matrix(1, 0, 0, 1, 74.17530059814464, 193.16485595703128)" style="fill: rgb(212, 51, 59); opacity: 1;"/></g></g></g></g></g></svg>
