<svg xmlns="http://www.w3.org/2000/svg" id="master-artboard" width="1400" height="980" x="0" y="0" version="1.1" viewBox="0 0 1400 980" style="enable-background:new 0 0 1400 980"><defs><style id="ee-google-fonts">@import url(https://fonts.googleapis.com/css?family=Covered+By+Your+Grace:400);</style><path id="text-path-0" d="M 27.667638778686523 413.09832763671875 A 100 41 0 0 1 911.5869750976562 413.09832763671875 A 100 41 0 0 1 27.667638778686523 413.09832763671875" style="fill:none;stroke:red;stroke-width:2"/></defs><g><path d="M 50.6983642578125 314.3253173828125 C 48.31460952758789 311.3179016113281 45.80683898925781 308.1779479980469 43.175052642822266 304.9054870605469 C 40.541748046875 301.6423034667969 37.89695358276367 298.5516052246094 35.24067687988281 295.63336181640625 C 34.94295883178711 295.8473815917969 34.44758224487305 296.1748046875 33.75453567504883 296.6155700683594 C 33.06149673461914 297.0563049316406 32.30229949951172 297.4050598144531 31.476945877075195 297.6617736816406 C 30.651592254638672 297.9184875488281 29.858457565307617 298.06585693359375 29.097536087036133 298.10382080078125 C 28.345916748046875 298.143310546875 27.78331756591797 297.9032287597656 27.40973472595215 297.3835754394531 C 26.826013565063477 296.5716247558594 26.431657791137695 295.5948181152344 26.226673126220703 294.4530944824219 C 26.01779556274414 293.30596923828125 25.932830810546875 292.13134765625 25.971778869628906 290.9292297363281 C 26.001426696777344 289.7255859375 26.104496002197266 288.5841064453125 26.280996322631836 287.5047912597656 C 26.45749282836914 286.4254455566406 26.608125686645508 285.5043029785156 26.732891082763672 284.7413330078125 L 14.603137969970703 267.86895751953125 C 13.910452842712402 266.9054260253906 13.872698783874512 265.8364562988281 14.489875793457031 264.6620178222656 C 15.107048988342285 263.4875793457031 15.821616172790527 262.6084899902344 16.633569717407227 262.0247497558594 C 18.706756591796875 260.5343322753906 20.384700775146484 260.05877685546875 21.667404174804688 260.5981140136719 C 22.955522537231445 261.1335754394531 24.072555541992188 261.9849853515625 25.01850700378418 263.1523132324219 C 25.973766326904297 264.3211669921875 26.831327438354492 265.47406005859375 27.591188430786133 266.6109619140625 C 28.35105323791504 267.7478942871094 29.24668312072754 268.17138671875 30.2780818939209 267.8815002441406 C 31.13103485107422 266.2583923339844 31.8836669921875 264.6499328613281 32.535980224609375 263.05609130859375 C 33.182891845703125 261.4661865234375 33.868038177490234 259.9637145996094 34.59142303466797 258.5486755371094 C 35.3109245300293 257.1282653808594 36.15003204345703 255.7942657470703 37.1087532043457 254.5467071533203 C 38.06206512451172 253.30303955078125 39.24241256713867 252.17530822753906 40.64979553222656 251.1635284423828 C 41.31559753417969 250.68487548828125 42.09077453613281 250.23843383789062 42.975318908691406 249.82421875 C 43.85445022583008 249.4138946533203 44.74755096435547 249.13719177246094 45.654624938964844 248.99415588378906 C 46.557804107666016 248.84568786621094 47.434452056884766 248.88873291015625 48.2845573425293 249.123291015625 C 49.12924575805664 249.36172485351562 49.87069320678711 249.92481994628906 50.50889587402344 250.8125457763672 C 51.67634201049805 252.43646240234375 52.530399322509766 254.09271240234375 53.07107925415039 255.7812957763672 C 53.606346130371094 257.4737854003906 54.008052825927734 259.20892333984375 54.276206970214844 260.9866943359375 C 54.54047393798828 262.7590637207031 54.75592803955078 264.53778076171875 54.92258071899414 266.3228454589844 C 55.08771514892578 268.1172180175781 55.353919982910156 269.89227294921875 55.72120666503906 271.6480407714844 C 56.013511657714844 271.43792724609375 56.607261657714844 271.0931701660156 57.50245666503906 270.61383056640625 C 58.3961296081543 270.1437683105469 59.312129974365234 269.62481689453125 60.25045394897461 269.0569763183594 C 61.19267272949219 268.49456787109375 62.11332321166992 267.97637939453125 63.01240921020508 267.50244140625 C 63.90219497680664 267.0269775390625 64.49594116210938 266.6822509765625 64.79365539550781 266.46820068359375 C 66.13324737548828 265.841796875 67.7855453491211 265.21636962890625 69.75055694580078 264.5919189453125 C 71.71556854248047 263.96746826171875 73.70191955566406 263.6068420410156 75.70962524414062 263.5100402832031 C 77.71732330322266 263.4132385253906 79.6407241821289 263.62744140625 81.47982025146484 264.1527099609375 C 83.32281494140625 264.683349609375 84.802734375 265.7254638671875 85.91959381103516 267.27899169921875 C 87.14151763916016 268.9786682128906 88.0487289428711 270.9087219238281 88.64122009277344 273.0691223144531 C 89.23523712158203 275.22021484375 89.56703186035156 277.2806701660156 89.63660430908203 279.25048828125 C 89.65798950195312 279.90838623046875 89.66747283935547 280.8581237792969 89.66506958007812 282.0996398925781 C 89.65877532958984 283.3357849121094 89.65171813964844 284.5765380859375 89.6438980102539 285.8219909667969 C 89.63760375976562 287.05810546875 89.61927795410156 288.1632995605469 89.58893585205078 289.1375427246094 C 89.55858612060547 290.1117858886719 89.53546905517578 290.662109375 89.51958465576172 290.7884826660156 L 81.48014068603516 324.35296630859375 C 81.16273498535156 325.47613525390625 80.81306457519531 326.3145751953125 80.43113708496094 326.8683166503906 C 80.04768371582031 327.43133544921875 79.48516845703125 327.97943115234375 78.74359130859375 328.5125732421875 C 78.22935485839844 328.88226318359375 77.4306640625 329.3702392578125 76.3475341796875 329.9764709472656 C 75.27371215820312 330.5842590332031 74.13737487792969 331.1507568359375 72.93852233886719 331.6759948730469 C 71.74508666992188 332.19732666015625 70.62437438964844 332.5514221191406 69.57638549804688 332.7383117675781 C 68.53770446777344 332.92669677734375 67.76837921142578 332.7531433105469 67.2684326171875 332.21759033203125 L 51.33462142944336 315.2103576660156 L 50.6983642578125 314.3253173828125 M 70.75465393066406 319.2673645019531 L 70.86833190917969 319.1856384277344 C 71.23641204833984 318.9210205078125 71.71147155761719 318.4111633300781 72.29351043701172 317.6560974121094 C 72.87012481689453 316.9049072265625 73.18962860107422 316.3385925292969 73.25201416015625 315.95709228515625 C 73.39017486572266 315.5211486816406 73.59707641601562 314.75250244140625 73.8727035522461 313.65118408203125 C 74.1522216796875 312.5552673339844 74.45863342285156 311.3825378417969 74.79193878173828 310.1330261230469 C 75.13064575195312 308.8796081542969 75.43976593017578 307.7049255371094 75.71928405761719 306.6090393066406 C 75.989501953125 305.5115966796875 76.23158264160156 304.7176513671875 76.4455337524414 304.2272033691406 C 76.95808410644531 302.2904968261719 77.55271911621094 299.9540100097656 78.22944641113281 297.2178039550781 C 78.90464782714844 294.4908752441406 79.41973114013672 291.7353820800781 79.77469635009766 288.9513244628906 C 80.133544921875 286.17266845703125 80.21065521240234 283.5103454589844 80.00602722167969 280.96435546875 C 79.80292510986328 278.4090576171875 79.09040832519531 276.2815856933594 77.86847686767578 274.5818786621094 C 77.07072448730469 273.47222900390625 76.07534790039062 272.8699951171875 74.88235473632812 272.7752380371094 C 73.68546295166016 272.6750183105469 72.4188232421875 272.8261413574219 71.0824203491211 273.22857666015625 C 69.74602508544922 273.6310119628906 68.46318817138672 274.1878967285156 67.23390197753906 274.8992004394531 C 66.00851440429688 275.6159362792969 64.98713684082031 276.2680969238281 64.16976928710938 276.855712890625 C 62.61623001098633 277.97259521484375 61.3585090637207 279.26678466796875 60.39659118652344 280.7383117675781 C 59.43857192993164 282.21527099609375 58.66064453125 283.7885437011719 58.06280517578125 285.4581604003906 C 57.466487884521484 287.11846923828125 56.98969650268555 288.8365173339844 56.63243103027344 290.6123352050781 C 56.27668762207031 292.37884521484375 55.89031982421875 294.1427307128906 55.47333526611328 295.90399169921875 C 55.410953521728516 296.2854919433594 55.25654983520508 296.7331237792969 55.01012420654297 297.2469177246094 C 54.763694763183594 297.7607116699219 54.56074905395508 298.30072021484375 54.401283264160156 298.866943359375 C 54.24333953857422 299.42388916015625 54.1414680480957 299.944580078125 54.09567642211914 300.4291076660156 C 54.04988098144531 300.9136047363281 54.19718551635742 301.3126525878906 54.53759002685547 301.62628173828125 L 70.75465393066406 319.2673645019531 M 43.04091262817383 262.918212890625 C 42.94534683227539 263.0936584472656 42.790592193603516 263.4266052246094 42.5766487121582 263.91705322265625 C 42.36811065673828 264.4035949707031 42.18681716918945 264.92803955078125 42.03276443481445 265.4903869628906 C 41.87329864501953 266.0566101074219 41.68929672241211 266.5830078125 41.48076248168945 267.0695495605469 C 41.27222442626953 267.55609130859375 41.117469787597656 267.8890380859375 41.01649856567383 268.0683898925781 C 41.01649856567383 268.0683898925781 40.84349822998047 268.64434814453125 40.49749755859375 269.7962646484375 C 40.14219665527344 270.9466552734375 39.7682991027832 272.2253723144531 39.37580108642578 273.63238525390625 C 38.97941970825195 275.03399658203125 38.62184524536133 276.3297119140625 38.3030891418457 277.5195007324219 C 37.97502517700195 278.7077941894531 37.838233947753906 279.33984375 37.89271545410156 279.4156188964844 L 44.033477783203125 287.9573669433594 L 44.48004913330078 287.6363220214844 C 44.48004913330078 287.6363220214844 44.51713943481445 287.2196350097656 44.59131622314453 286.38629150390625 C 44.66160202026367 285.54754638671875 44.75775146484375 284.5506286621094 44.8797721862793 283.3955078125 C 45.00178909301758 282.24041748046875 45.09394836425781 281.0780334472656 45.156246185302734 279.90838623046875 C 45.21702194213867 278.748046875 45.27190399169922 277.8136291503906 45.320884704589844 277.1051330566406 C 45.27431106567383 276.57208251953125 45.275821685791016 275.67193603515625 45.32542037963867 274.4046936035156 C 45.369606018066406 273.1413269042969 45.38500213623047 272.34613037109375 45.371604919433594 272.0191345214844 C 45.27054214477539 271.4103088378906 45.167442321777344 270.63873291015625 45.062286376953125 269.70440673828125 C 44.95172119140625 268.77398681640625 44.8358268737793 267.8761291503906 44.714603424072266 267.0108337402344 C 44.59880065917969 266.14166259765625 44.49763870239258 265.372802734375 44.41112518310547 264.7042541503906 C 44.32460403442383 264.03570556640625 44.281349182128906 263.701416015625 44.281349182128906 263.701416015625 L 43.487483978271484 262.59716796875 L 43.04091262817383 262.918212890625 ZM 155.1122283935547 243.06365966796875 C 155.6179962158203 244.6340789794922 155.95401000976562 245.8824005126953 156.1202850341797 246.80862426757812 C 156.2865753173828 247.73486328125 156.2686767578125 248.6412811279297 156.0666046142578 249.5278778076172 C 155.8645477294922 250.4144744873047 155.4634552001953 251.4193878173828 154.8633270263672 252.54261779785156 C 154.2665557861328 253.6570281982422 153.46588134765625 255.21331787109375 152.4612579345703 257.21148681640625 C 151.45664978027344 259.2096862792969 150.25486755371094 261.7708740234375 148.8559112548828 264.8951110839844 C 147.4603271484375 268.0105285644531 145.84327697753906 271.9774169921875 144.00479125976562 276.7957458496094 C 143.2305908203125 278.6396484375 142.4359130859375 280.5438537597656 141.62074279785156 282.50836181640625 C 140.7994842529297 284.4755859375 139.8520050048828 286.3240051269531 138.7783203125 288.05364990234375 C 137.70462036132812 289.7832946777344 136.4856414794922 291.3515319824219 135.12136840820312 292.75836181640625 C 133.7510223388672 294.1679382324219 132.1531219482422 295.28131103515625 130.32766723632812 296.09844970703125 C 126.7497787475586 297.7000427246094 123.58789825439453 297.669189453125 120.8420181274414 296.00592041015625 C 118.0995101928711 294.3338317871094 116.02142333984375 291.9187927246094 114.6077651977539 288.7607421875 C 113.67622375488281 286.6797180175781 112.95533752441406 284.9061279296875 112.44511413574219 283.4399719238281 C 111.93824768066406 281.96502685546875 111.43175506591797 279.9931945800781 110.92562866210938 277.5245361328125 C 109.63973999023438 277.0994873046875 108.5232162475586 276.7264404296875 107.5760498046875 276.4053955078125 C 106.63225555419922 276.0755615234375 105.91793060302734 275.36907958984375 105.43309783935547 274.2859802246094 C 104.98638916015625 273.2880859375 104.91767883300781 272.5226745605469 105.2269515991211 271.98980712890625 C 105.53350830078125 271.45086669921875 105.97291564941406 270.9802551269531 106.54518127441406 270.5780029296875 C 107.10863494873047 270.1723937988281 107.64566040039062 269.7567138671875 108.15626525878906 269.3309326171875 C 108.66414642333984 268.8990783691406 108.93114471435547 268.3778381347656 108.957275390625 267.7671813964844 C 108.89820861816406 267.1947021484375 108.79996490478516 266.14306640625 108.66254425048828 264.6122741699219 C 108.52239227294922 263.0754089355469 108.37629699707031 261.4681701660156 108.2242660522461 259.79052734375 C 108.06951141357422 258.1068115234375 107.93463134765625 256.5164489746094 107.81963348388672 255.0194549560547 C 107.69854736328125 253.5251922607422 107.60847473144531 252.49180603027344 107.5494155883789 251.91929626464844 C 107.50164031982422 250.2461395263672 107.50517272949219 248.52442932128906 107.56002807617188 246.7541961669922 C 107.61215209960938 244.9778594970703 107.85880279541016 243.29342651367188 108.29995727539062 241.7008514404297 C 108.73503112792969 240.1110076904297 109.43004608154297 238.6531524658203 110.38500213623047 237.3272705078125 C 111.3399658203125 236.0013885498047 112.69062042236328 234.94757080078125 114.43696594238281 234.1658477783203 C 115.43488311767578 233.71914672851562 116.86526489257812 233.6266632080078 118.72811126708984 233.88839721679688 C 120.59095764160156 234.15013122558594 122.47740173339844 234.6277313232422 124.3874282836914 235.3212127685547 C 126.29745483398438 236.01467895507812 128.02615356445312 236.8660125732422 129.5735321044922 237.87521362304688 C 131.124267578125 238.87559509277344 132.12298583984375 239.874755859375 132.56968688964844 240.87266540527344 C 133.12806701660156 242.12005615234375 133.3480682373047 243.39476013183594 133.22970581054688 244.69674682617188 C 133.111328125 245.99874877929688 132.8131866455078 247.28260803222656 132.3352813720703 248.54832458496094 C 131.84857177734375 249.81068420410156 131.27377319335938 251.0394287109375 130.6108856201172 252.2345733642578 C 129.947998046875 253.42971801757812 129.34954833984375 254.5485382080078 128.81553649902344 255.5910186767578 C 128.73643493652344 255.62643432617188 128.60891723632812 255.78211975097656 128.4329833984375 256.05810546875 C 128.25096130371094 256.3367919921875 128.0968780517578 256.55548095703125 127.97071838378906 256.7142333984375 C 127.92366027832031 256.8375549316406 127.82115173339844 257.106201171875 127.6631851196289 257.52020263671875 C 127.5018539428711 257.9430236816406 127.3287582397461 258.39666748046875 127.14390563964844 258.88116455078125 C 126.95904541015625 259.3656311035156 126.79716491699219 259.8361511230469 126.65826416015625 260.2927551269531 C 126.51599884033203 260.7581787109375 126.42134094238281 261.05255126953125 126.3742904663086 261.1758728027344 C 126.23648834228516 261.5370178222656 125.93587493896484 262.1463623046875 125.47245025634766 263.00384521484375 C 125.00630187988281 263.85528564453125 124.49669647216797 264.78094482421875 123.94361877441406 265.7808532714844 C 123.39054870605469 266.78076171875 122.88094329833984 267.7064208984375 122.414794921875 268.5578308105469 C 121.95137023925781 269.41534423828125 121.633056640625 269.9851379394531 121.4598388671875 270.2671813964844 L 121.40318298339844 271.4867858886719 C 121.38870239257812 271.8949890136719 121.56816101074219 272.6875 121.94155883789062 273.86431884765625 C 122.32376861572266 275.04449462890625 122.74564361572266 276.3785400390625 123.20719146728516 277.8664855957031 C 123.67755126953125 279.3577880859375 124.17433166503906 280.85919189453125 124.69754028320312 282.37066650390625 C 125.2268295288086 283.8794250488281 125.69712829589844 285.09320068359375 126.1084213256836 286.01202392578125 C 126.14382934570312 286.09112548828125 126.22319793701172 286.1542053222656 126.34651184082031 286.2012634277344 C 126.5843505859375 286.2919921875 126.74585723876953 286.3183288574219 126.83104705810547 286.2801818847656 C 127.49429321289062 285.9832763671875 127.98860931396484 285.4150695800781 128.31399536132812 284.5755310058594 C 128.6305694580078 283.73260498046875 129.06768798828125 283.03662109375 129.62533569335938 282.4875183105469 L 141.31719970703125 255.07847595214844 L 142.9197998046875 244.92782592773438 C 143.07208251953125 244.15846252441406 143.59263610839844 243.1511993408203 144.48147583007812 241.90603637695312 C 145.37640380859375 240.6581573486328 146.43801879882812 239.73373413085938 147.66635131835938 239.1327667236328 C 148.89468383789062 238.5317840576172 150.17308044433594 238.43429565429688 151.50155639648438 238.8402862548828 C 152.83004760742188 239.2462615966797 154.03359985351562 240.654052734375 155.1122283935547 243.06365966796875 M 123.30204010009766 245.62380981445312 C 123.57209014892578 245.1011962890625 123.51606750488281 244.52734375 123.13398742675781 243.9022216796875 C 122.75526428222656 243.26829528808594 122.2656021118164 242.7863006591797 121.66498565673828 242.4562225341797 C 121.06437683105469 242.12612915039062 120.44779968261719 242.0296173095703 119.81526184082031 242.16668701171875 C 119.17391967773438 242.30039978027344 118.77128601074219 242.85313415527344 118.60735321044922 243.82492065429688 C 118.50768280029297 244.27127075195312 118.36782836914062 245.1336669921875 118.18779754638672 246.41213989257812 C 118.01384735107422 247.68788146972656 117.84638977050781 248.9862823486328 117.6854248046875 250.30734252929688 C 117.5305404663086 251.6256866455078 117.41068267822266 252.75303649902344 117.32585906982422 253.68942260742188 C 117.24711608886719 254.62307739257812 117.29571533203125 254.95191955566406 117.47164916992188 254.6759490966797 L 123.30204010009766 245.62380981445312 ZM 211.7696533203125 260.9308776855469 C 210.0074920654297 259.57861328125 208.2255096435547 257.48809814453125 206.42367553710938 254.65928649902344 C 204.6238555908203 251.83685302734375 202.8133544921875 248.8255157470703 200.99215698242188 245.6253204345703 C 199.16461181640625 242.4271240234375 197.43408203125 239.2926788330078 195.80056762695312 236.22198486328125 C 194.1627197265625 233.15965270996094 192.7073211669922 230.75279235839844 191.43438720703125 229.0014190673828 C 190.16778564453125 227.248046875 189.1023712158203 226.3644561767578 188.23812866210938 226.3506622314453 C 187.37388610839844 226.33685302734375 186.83187866210938 227.79779052734375 186.61209106445312 230.73345947265625 L 186.29412841796875 269.25616455078125 C 186.2471466064453 270.6132507324219 185.99375915527344 271.62652587890625 185.53396606445312 272.2960205078125 C 185.0741729736328 272.9654846191406 184.1513214111328 273.51898193359375 182.76541137695312 273.95648193359375 C 182.0660858154297 274.17724609375 181.2913360595703 274.302978515625 180.44113159179688 274.33367919921875 C 179.5909423828125 274.3643798828125 178.75112915039062 274.27294921875 177.92169189453125 274.05938720703125 C 177.0902557373047 273.8394775390625 176.33763122558594 273.5038146972656 175.663818359375 273.0523986816406 C 174.9943389892578 272.59259033203125 174.49168395996094 271.9857482910156 174.15582275390625 271.2319030761719 C 174.08734130859375 270.10699462890625 173.72483825683594 268.1171569824219 173.06832885742188 265.2623596191406 C 172.40745544433594 262.4159240722656 171.54452514648438 259.1509094238281 170.47955322265625 255.46730041503906 C 169.4102325439453 251.7920684814453 168.2606201171875 247.92893981933594 167.03073120117188 243.8779296875 C 165.79884338378906 239.82057189941406 164.60472106933594 236.03790283203125 163.44839477539062 232.52993774414062 C 162.29205322265625 229.02198791503906 161.26817321777344 226.00003051757812 160.37673950195312 223.46408081054688 C 159.47894287109375 220.93014526367188 158.86212158203125 219.28623962402344 158.52626037597656 218.53236389160156 C 158.25131225585938 217.66140747070312 157.99159240722656 216.76116943359375 157.74710083007812 215.83164978027344 C 157.50460815429688 214.90847778320312 157.36802673339844 214.0218048095703 157.3373260498047 213.17161560058594 C 157.30662536621094 212.3214111328125 157.49891662597656 211.568603515625 157.91421508789062 210.91319274902344 C 158.32749938964844 210.25140380859375 159.14126586914062 209.72885131835938 160.3555450439453 209.3455352783203 C 162.0084686279297 208.82373046875 163.7730712890625 209.03219604492188 165.6493682861328 209.9709014892578 C 167.51930236816406 210.91162109375 168.70111083984375 212.1639404296875 169.19482421875 213.7278594970703 C 169.9072723388672 215.9847412109375 170.50563049316406 218.2566680908203 170.98989868164062 220.5436553955078 C 171.47415161132812 222.8306121826172 172.072509765625 225.10255432128906 172.78497314453125 227.35943603515625 C 173.2244873046875 228.751708984375 173.59475708007812 229.92465209960938 173.8957977294922 230.87826538085938 C 174.1988525390625 231.83822631835938 174.74395751953125 232.9559783935547 175.53111267089844 234.2315216064453 C 175.57301330566406 233.45628356933594 175.6219940185547 232.1055450439453 175.67807006835938 230.17930603027344 C 175.7384796142578 228.2447052001953 175.8353729248047 226.2042236328125 175.96875 224.05783081054688 C 176.10414123535156 221.91781616210938 176.2090606689453 219.9027557373047 176.28353881835938 218.01266479492188 C 176.35800170898438 216.12255859375 176.4161834716797 214.78988647460938 176.4580841064453 214.0146484375 C 176.5205078125 212.08641052246094 176.90496826171875 210.1264190673828 177.6114959716797 208.13467407226562 C 178.31800842285156 206.14292907714844 179.6444549560547 204.74195861816406 181.59085083007812 203.93177795410156 C 182.86802673339844 203.43771362304688 184.17361450195312 203.41006469726562 185.50758361816406 203.84884643554688 C 186.84153747558594 204.28762817382812 188.0981903076172 205.01296997070312 189.27752685546875 206.02488708496094 C 190.4568634033203 207.03680419921875 191.51991271972656 208.13436889648438 192.46669006347656 209.3175811767578 C 193.41346740722656 210.5007781982422 194.168701171875 211.53121948242188 194.73239135742188 212.40890502929688 L 212.01736450195312 242.64820861816406 L 222.1812744140625 255.7775421142578 C 222.29837036132812 255.83843994140625 222.4191436767578 256.06597900390625 222.54356384277344 256.46014404296875 C 222.66598510742188 256.8479309082031 222.75428771972656 257.1276550292969 222.80848693847656 257.29931640625 C 223.13961791992188 258.3482971191406 223.22433471679688 259.44708251953125 223.06260681152344 260.5957336425781 C 222.90089416503906 261.7443542480469 222.209716796875 262.5113525390625 220.98910522460938 262.89666748046875 C 219.51417541503906 263.3622741699219 217.8643035888672 263.4286804199219 216.0394744873047 263.095947265625 C 214.21466064453125 262.76318359375 212.7913818359375 262.0414733886719 211.7696533203125 260.9308776855469 ZM 260.1067810058594 231.39068603515625 C 260.0157470703125 231.41131591796875 259.6393737792969 232.52540588378906 258.97760009765625 234.73294067382812 C 258.307861328125 236.93545532226562 257.3022766113281 239.40548706054688 255.9608612060547 242.1430206298828 C 254.61146545410156 244.8755340576172 252.89393615722656 247.5069122314453 250.8082733154297 250.0371551513672 C 248.71612548828125 252.56887817382812 246.24940490722656 254.15670776367188 243.4081268310547 254.80064392089844 C 239.4940643310547 255.68772888183594 235.95504760742188 255.22860717773438 232.7910919189453 253.4232940673828 C 229.62063598632812 251.6194610595703 227.56166076660156 248.62721252441406 226.61416625976562 244.44656372070312 C 225.95529174804688 242.35377502441406 225.67068481445312 239.75575256347656 225.76031494140625 236.65252685546875 C 225.84994506835938 233.54928588867188 226.27139282226562 230.25123596191406 227.02464294433594 226.7583465576172 C 227.7793731689453 223.27195739746094 228.8628387451172 219.80335998535156 230.2750244140625 216.3525390625 C 231.68719482421875 212.90171813964844 233.34605407714844 209.8153839111328 235.25157165527344 207.0935516357422 C 237.16358947753906 204.3702392578125 239.30886840820312 202.1785125732422 241.6874237060547 200.5183868408203 C 244.06597900390625 198.85826110839844 246.66842651367188 198.08045959472656 249.49478149414062 198.18499755859375 L 249.07260131835938 196.32223510742188 C 248.5480194091797 194.00759887695312 247.9436798095703 191.64268493652344 247.25958251953125 189.2274932861328 C 246.56900024414062 186.8137664794922 245.8013458251953 184.0449676513672 244.95663452148438 180.92108154296875 C 244.10543823242188 177.7986602783203 243.14622497558594 174.1846160888672 242.07901000976562 170.07896423339844 C 241.0052947998047 165.9747772216797 239.81344604492188 161.03265380859375 238.50344848632812 155.2525634765625 C 238.5489959716797 154.21688842773438 238.87123107910156 153.4671173095703 239.47018432617188 153.0032501220703 C 240.06263732910156 152.54086303710938 240.75872802734375 152.21905517578125 241.55844116210938 152.0377960205078 C 243.60650634765625 151.57363891601562 245.37973022460938 151.87240600585938 246.87814331054688 152.93414306640625 C 248.384521484375 154.0009002685547 249.49203491210938 155.47933959960938 250.20066833496094 157.3694610595703 C 250.7103271484375 160.4325714111328 251.34597778320312 163.5388946533203 252.10763549804688 166.68844604492188 C 252.86131286621094 169.83297729492188 253.82455444335938 173.3743133544922 254.99737548828125 177.31248474121094 C 256.170166015625 181.25067138671875 257.62060546875 185.68988037109375 259.3486328125 190.63011169433594 C 261.0751647949219 195.56385803222656 263.164794921875 201.375732421875 265.6175231933594 208.06573486328125 C 268.0687561035156 214.74923706054688 270.9276123046875 222.4169921875 274.1941223144531 231.06898498535156 C 277.4606018066406 239.72097778320312 281.2689514160156 249.7232666015625 285.6191711425781 261.0758361816406 L 286.64697265625 265.61083984375 C 286.767822265625 266.14398193359375 286.6601257324219 266.5887756347656 286.3239440917969 266.94525146484375 C 285.98126220703125 267.30316162109375 285.5353088378906 267.61273193359375 284.9861145019531 267.8739013671875 C 284.43841552734375 268.1416015625 283.88037109375 268.36376953125 283.3120422363281 268.5404357910156 C 282.74871826171875 268.7091064453125 282.3337707519531 268.82366943359375 282.06719970703125 268.8840637207031 C 280.7343444824219 269.1861572265625 279.2249755859375 269.1317443847656 277.5391540527344 268.72088623046875 C 275.85980224609375 268.30853271484375 274.7358093261719 267.4661560058594 274.1671447753906 266.1936950683594 L 261.16461181640625 231.71490478515625 C 261.10418701171875 231.4483184814453 260.95831298828125 231.3173370361328 260.7269287109375 231.32191467285156 C 260.4890441894531 231.32798767089844 260.2823486328125 231.3509063720703 260.1067810058594 231.39068603515625 M 237.30718994140625 239.644287109375 C 237.3675994873047 239.91085815429688 237.45021057128906 240.38088989257812 237.55499267578125 241.0543975830078 C 237.6612548828125 241.73439025878906 237.8174591064453 242.423583984375 238.02357482910156 243.12196350097656 C 238.22970581054688 243.82032775878906 238.48097229003906 244.41619873046875 238.77734375 244.90956115722656 C 239.08169555664062 245.407958984375 239.5004425048828 245.5967254638672 240.03359985351562 245.4759063720703 C 242.2698516845703 245.0579376220703 244.36691284179688 243.6940155029297 246.3247833251953 241.38414001464844 C 248.27467346191406 239.06922912597656 249.93121337890625 236.37989807128906 251.29441833496094 233.31613159179688 C 252.65760803222656 230.25238037109375 253.64027404785156 227.06295776367188 254.242431640625 223.7478790283203 C 254.84457397460938 220.4327850341797 254.94204711914062 217.56019592285156 254.53485107421875 215.13009643554688 C 254.1211395263672 212.7014617919922 253.12399291992188 210.98609924316406 251.5434112548828 209.9840087890625 C 249.96429443359375 208.98843383789062 247.6986083984375 209.20114135742188 244.74635314941406 210.62217712402344 C 241.68807983398438 214.863037109375 239.38473510742188 219.44891357421875 237.83631896972656 224.37979125976562 C 236.29440307617188 229.30918884277344 236.11802673339844 234.39735412597656 237.30718994140625 239.644287109375 ZM 338.3883972167969 200.4749298095703 C 338.45916748046875 202.12326049804688 338.4517517089844 203.41600036621094 338.3661804199219 204.35313415527344 C 338.2806396484375 205.290283203125 338.02276611328125 206.159423828125 337.5926208496094 206.96058654785156 C 337.1624450683594 207.76174926757812 336.5090026855469 208.62413024902344 335.6322326660156 209.54774475097656 C 334.7610778808594 210.46377563476562 333.57598876953125 211.75169372558594 332.0769958496094 213.41151428222656 C 330.5780029296875 215.0713348388672 328.7394714355469 217.2216339111328 326.5613708496094 219.86244201660156 C 324.38885498046875 222.49563598632812 321.7768249511719 225.89096069335938 318.72528076171875 230.04840087890625 C 317.4893798828125 231.6206512451172 316.2177429199219 233.24559020996094 314.91033935546875 234.92323303222656 C 313.5963439941406 236.6018829345703 312.19219970703125 238.1324920654297 310.6978759765625 239.5150604248047 C 309.2035827636719 240.8976287841797 307.6120300292969 242.08602905273438 305.92327880859375 243.08026123046875 C 304.2279052734375 244.07550048828125 302.39178466796875 244.72476196289062 300.4149169921875 245.02801513671875 C 296.5402526855469 245.62240600585938 293.4999694824219 244.75335693359375 291.29412841796875 242.4208526611328 C 289.0938720703125 240.0807647705078 287.7314147949219 237.20071411132812 287.2067565917969 233.7807159423828 C 286.8610534667969 231.52708435058594 286.6368103027344 229.62576293945312 286.5340881347656 228.07676696777344 C 286.43695068359375 226.52017211914062 286.4720458984375 224.48464965820312 286.6393737792969 221.97019958496094 C 285.512451171875 221.21905517578125 284.5350036621094 220.56301879882812 283.70703125 220.0020751953125 C 282.8846435546875 219.43353271484375 282.38348388671875 218.5627899169922 282.20355224609375 217.38983154296875 C 282.03778076171875 216.30914306640625 282.1747131347656 215.552978515625 282.61431884765625 215.12132263183594 C 283.0529479980469 214.68307495117188 283.6015319824219 214.34600830078125 284.2600402832031 214.11009216308594 C 284.91094970703125 213.8686065673828 285.5390319824219 213.61038208007812 286.14434814453125 213.33541870117188 C 286.7486572265625 213.05386352539062 287.1444396972656 212.6221923828125 287.33172607421875 212.0404052734375 C 287.4267578125 211.47276306152344 287.6111755371094 210.43276977539062 287.8850402832031 208.92042541503906 C 288.1578674316406 207.4014892578125 288.44366455078125 205.81312561035156 288.7424011230469 204.1553192138672 C 289.0401611328125 202.49093627929688 289.332275390625 200.9218292236328 289.6187744140625 199.44801330566406 C 289.898681640625 197.97520446777344 290.0861511230469 196.95497131347656 290.1811828613281 196.38734436035156 C 290.5792541503906 194.7615203857422 291.0397033691406 193.10252380371094 291.5625 191.41033935546875 C 292.08428955078125 189.71157836914062 292.7691955566406 188.15304565429688 293.6172790527344 186.73471069335938 C 294.4587707519531 185.31739807128906 295.5158386230469 184.09632873535156 296.78851318359375 183.07150268554688 C 298.0611572265625 182.0466766357422 299.6430969238281 181.3892059326172 301.5343017578125 181.09909057617188 C 302.614990234375 180.9333038330078 304.01861572265625 181.2238311767578 305.7451477050781 181.97067260742188 C 307.4716796875 182.71751403808594 309.1636657714844 183.67874145507812 310.8210754394531 184.85435485839844 C 312.478515625 186.02996826171875 313.9192199707031 187.3096466064453 315.1431884765625 188.69338989257812 C 316.37274169921875 190.06951904296875 317.0704040527344 191.29794311523438 317.2361755371094 192.37863159179688 C 317.4433898925781 193.7294921875 317.317138671875 195.01686096191406 316.857421875 196.24072265625 C 316.3976745605469 197.46458435058594 315.7694091796875 198.6232452392578 314.9726867675781 199.71669006347656 C 314.1683349609375 200.8045654296875 313.2879943847656 201.83665466308594 312.3316345214844 202.81295776367188 C 311.3752746582031 203.7892608642578 310.5013122558594 204.70909118652344 309.709716796875 205.5724334716797 C 309.6240539550781 205.5855712890625 309.45977783203125 205.7018280029297 309.2169189453125 205.9211883544922 C 308.9674377441406 206.1415557861328 308.7608337402344 206.3115234375 308.5970458984375 206.4310760498047 C 308.5189514160156 206.5374755859375 308.34881591796875 206.769287109375 308.08660888671875 207.1265106201172 C 307.8188171386719 207.4913330078125 307.5315246582031 207.88275146484375 307.2247009277344 208.30078125 C 306.9178771972656 208.71881103515625 306.63690185546875 209.12948608398438 306.38177490234375 209.5328369140625 C 306.1210632324219 209.94378662109375 305.95166015625 210.2024688720703 305.8735656738281 210.30886840820312 C 305.64483642578125 210.6204833984375 305.1932678222656 211.128173828125 304.5188293457031 211.83189392089844 C 303.8434143066406 212.529052734375 303.1063537597656 213.28622436523438 302.3077087402344 214.1034393310547 C 301.5090637207031 214.920654296875 300.7720031738281 215.67784118652344 300.0965576171875 216.37498474121094 C 299.4221496582031 217.07872009277344 298.9639892578125 217.54356384277344 298.7221374511719 217.76951599121094 L 298.3437805175781 218.9302978515625 C 298.221435546875 219.3200225830078 298.18408203125 220.13174438476562 298.2317199707031 221.36544799804688 C 298.28692626953125 222.604736328125 298.33953857421875 224.0029296875 298.3895568847656 225.5600128173828 C 298.4471740722656 227.1226806640625 298.527587890625 228.70208740234375 298.63079833984375 230.2982177734375 C 298.7406005859375 231.8933563232422 298.871826171875 233.1884307861328 299.02447509765625 234.18345642089844 C 299.0376281738281 234.2691192626953 299.0973815917969 234.3509979248047 299.20379638671875 234.42910766601562 C 299.40899658203125 234.57972717285156 299.5577392578125 234.64796447753906 299.6499938964844 234.63381958007812 C 300.3682556152344 234.5236358642578 300.99566650390625 234.1070098876953 301.5322570800781 233.3839569091797 C 302.06121826171875 232.6553192138672 302.6673889160156 232.10032653808594 303.3507995605469 231.71896362304688 L 321.89892578125 208.39683532714844 L 326.1385192871094 199.03573608398438 C 326.48956298828125 198.3343963623047 327.25885009765625 197.50146484375 328.4463195800781 196.5369110107422 C 329.640380859375 195.5713653564453 330.9093017578125 194.9619140625 332.2530822753906 194.70855712890625 C 333.5968933105469 194.4552001953125 334.8553161621094 194.70054626464844 336.0283508300781 195.4446258544922 C 337.201416015625 196.18869018554688 337.98809814453125 197.86544799804688 338.3883972167969 200.4749298095703 M 307.0398254394531 194.4992218017578 C 307.43890380859375 194.06704711914062 307.5372314453125 193.4989013671875 307.33477783203125 192.7947998046875 C 307.137939453125 192.0830841064453 306.7937927246094 191.48838806152344 306.3023376464844 191.01071166992188 C 305.8108825683594 190.53305053710938 305.2420654296875 190.27633666992188 304.5958251953125 190.24057006835938 C 303.9419860839844 190.19923400878906 303.4070739746094 190.62527465820312 302.9910583496094 191.5186767578125 C 302.7764892578125 191.92254638671875 302.4127197265625 192.71688842773438 301.8997802734375 193.90170288085938 C 301.3934326171875 195.08551025390625 300.8873291015625 196.29287719726562 300.3814392089844 197.52381896972656 C 299.8821716308594 198.7537384033203 299.4673767089844 199.808837890625 299.13702392578125 200.68910217285156 C 298.8132629394531 201.568359375 298.7728271484375 201.8983154296875 299.0157165527344 201.67893981933594 L 307.0398254394531 194.4992218017578 ZM 361.69281005859375 217.688720703125 L 343.3635559082031 182.72459411621094 C 343.2687072753906 182.63961791992188 343.21697998046875 182.5506591796875 343.2084045410156 182.4577178955078 L 343.1578674316406 181.91004943847656 C 343.0825500488281 181.09352111816406 343.2668762207031 180.3701934814453 343.71087646484375 179.7400665283203 C 344.1542663574219 179.1033172607422 344.7199401855469 178.52223205566406 345.4079284667969 177.99681091308594 C 345.587158203125 177.98028564453125 345.9471130371094 177.92698669433594 346.48779296875 177.83694458007812 C 347.0278625488281 177.74026489257812 347.3875427246094 177.68365478515625 347.5667724609375 177.6671142578125 C 349.29278564453125 177.5078887939453 350.56591796875 177.66494750976562 351.3861999511719 178.1382598876953 C 352.20648193359375 178.611572265625 353.2955627441406 179.24085998535156 354.6534118652344 180.026123046875 C 355.1446838378906 181.35995483398438 355.7491760253906 182.72352600097656 356.46685791015625 184.11683654785156 C 357.1918029785156 185.5161590576172 358.0883483886719 187.2879638671875 359.156494140625 189.43223571777344 C 360.2246398925781 191.57652282714844 361.5941162109375 194.2654266357422 363.2648620605469 197.49896240234375 C 364.9356384277344 200.73248291015625 367.0550842285156 204.83848571777344 369.6232604980469 209.81695556640625 L 370.36285400390625 210.43162536621094 C 370.5933837890625 209.95509338378906 370.78814697265625 209.34463500976562 370.94708251953125 208.60020446777344 C 371.1054382324219 207.84915161132812 371.39642333984375 206.54022216796875 371.820068359375 204.6734161376953 C 372.24310302734375 202.7999725341797 372.8400573730469 200.09034729003906 373.6109313964844 196.54454040527344 C 374.3811950683594 192.99209594726562 375.4935302734375 188.17623901367188 376.9479064941406 182.096923828125 C 377.5625 180.84852600097656 377.9345397949219 179.4384002685547 378.06402587890625 177.86651611328125 C 378.1941223144531 176.30128479003906 378.37896728515625 174.82138061523438 378.6185302734375 173.42681884765625 C 378.8581237792969 172.03224182128906 379.32098388671875 170.84469604492188 380.0071716308594 169.86419677734375 C 380.6933288574219 168.88368225097656 381.8529357910156 168.31809997558594 383.4859924316406 168.16744995117188 C 385.03277587890625 168.02476501464844 386.5897216796875 168.50042724609375 388.1568298339844 169.5944366455078 C 389.7173156738281 170.68905639648438 390.5768737792969 172.09603881835938 390.7354736328125 173.81541442871094 C 390.810791015625 174.63194274902344 390.620361328125 175.5432891845703 390.1642150878906 176.5494384765625 C 389.7080383300781 177.55560302734375 389.2368469238281 178.3991241455078 388.75067138671875 179.07998657226562 L 377.2402648925781 235.8874969482422 L 376.4237365722656 235.96282958984375 C 376.0586242675781 235.9965057373047 375.533203125 235.99810791015625 374.8475036621094 235.96763610839844 C 374.1557922363281 235.9444122314453 373.4374084472656 235.84999084472656 372.6923828125 235.6844024658203 C 371.9479675292969 235.52545166015625 371.2910461425781 235.33499145507812 370.7215576171875 235.11302185058594 C 370.152099609375 234.8910675048828 369.80438232421875 234.60513305664062 369.6783752441406 234.25521850585938 L 361.74334716796875 218.2364044189453 L 361.69281005859375 217.688720703125 ZM 614.5523681640625 237.11709594726562 C 613.5181884765625 235.15130615234375 612.7750854492188 232.5067596435547 612.3231201171875 229.18345642089844 C 611.8702392578125 225.86676025390625 611.4867553710938 222.37405395507812 611.1726684570312 218.70535278320312 C 610.8519287109375 215.0358123779297 610.5926513671875 211.46478271484375 610.394775390625 207.9922637939453 C 610.1893920898438 204.52552795410156 609.8753662109375 201.73043823242188 609.4525756835938 199.60702514648438 C 609.036376953125 197.48443603515625 608.4387817382812 196.2359619140625 607.65966796875 195.86160278320312 C 606.880615234375 195.48724365234375 605.7767333984375 196.58705139160156 604.3480834960938 199.1610565185547 L 587.9314575195312 234.01206970214844 C 587.3206176757812 235.22483825683594 586.6663208007812 236.03897094726562 585.9684448242188 236.45445251464844 C 585.2706298828125 236.8699188232422 584.2008056640625 236.9862060546875 582.759033203125 236.8032989501953 C 582.0315551757812 236.7110137939453 581.2753295898438 236.50083923339844 580.4903564453125 236.1727752685547 C 579.7053833007812 235.84471130371094 578.9810180664062 235.4100799560547 578.3171997070312 234.868896484375 C 577.6541748046875 234.32110595703125 577.1112060546875 233.701171875 576.6882934570312 233.0091094970703 C 576.2728271484375 232.311279296875 576.0703735351562 231.54974365234375 576.0809936523438 230.72451782226562 C 576.48974609375 229.6742706298828 576.9935913085938 227.71543884277344 577.5925903320312 224.8480224609375 C 578.18408203125 221.98638916015625 578.7673950195312 218.66000366210938 579.3424072265625 214.868896484375 C 579.9099731445312 211.0835723876953 580.4832763671875 207.09400939941406 581.0623779296875 202.90020751953125 C 581.6422729492188 198.6997833251953 582.1414794921875 194.76466369628906 582.56005859375 191.09481811523438 C 582.9785766601562 187.42498779296875 583.3139038085938 184.251953125 583.5660400390625 181.57574462890625 C 583.8115844726562 178.89869689941406 583.9396362304688 177.14755249023438 583.9502563476562 176.32232666015625 C 584.065185546875 175.416259765625 584.2062377929688 174.48997497558594 584.3733520507812 173.54348754882812 C 584.5396118164062 172.6035919189453 584.7868041992188 171.74118041992188 585.1148681640625 170.9562225341797 C 585.4429321289062 170.17127990722656 585.9327392578125 169.56813049316406 586.5842895507812 169.1467742919922 C 587.2366333007812 168.71881103515625 588.1944580078125 168.58494567871094 589.4576416015625 168.74520874023438 C 591.1771850585938 168.96334838867188 592.6924438476562 169.8914337158203 594.0033569335938 171.52944946289062 C 595.3077392578125 173.16661071777344 595.856689453125 174.79867553710938 595.6502685546875 176.42564392089844 C 595.3524169921875 178.7734832763672 594.9446411132812 181.0872344970703 594.427001953125 183.3668670654297 C 593.9093017578125 185.64651489257812 593.5015258789062 187.9602508544922 593.2036743164062 190.30810546875 C 593.0198974609375 191.75650024414062 592.8651123046875 192.97671508789062 592.7392578125 193.96876525878906 C 592.6126098632812 194.96742248535156 592.6396484375 196.21072387695312 592.8204956054688 197.69863891601562 C 593.18310546875 197.0121612548828 593.7930908203125 195.80599975585938 594.6504516601562 194.08018493652344 C 595.5152587890625 192.3485870361328 596.45751953125 190.5360870361328 597.4772338867188 188.6427001953125 C 598.4961547851562 186.7559356689453 599.43505859375 184.9698944091797 600.2940063476562 183.28460693359375 C 601.1528930664062 181.5992889404297 601.763671875 180.4134063720703 602.1262817382812 179.72691345214844 C 602.990234375 178.00193786621094 604.1599731445312 176.3829345703125 605.6354370117188 174.86993408203125 C 607.1109619140625 173.35693359375 608.902099609375 172.63998413085938 611.0088500976562 172.71910095214844 C 612.3756103515625 172.80511474609375 613.5728149414062 173.3266143798828 614.6005249023438 174.28355407714844 C 615.6282958984375 175.24050903320312 616.4658203125 176.4253387451172 617.1131591796875 177.83804321289062 C 617.7605590820312 179.25074768066406 618.2664184570312 180.6925506591797 618.630859375 182.16343688964844 C 618.9953002929688 183.63433837890625 619.249755859375 184.88632202148438 619.3942260742188 185.9193878173828 L 622.4315185546875 220.61752319335938 L 626.1651000976562 236.79603576660156 C 626.2459106445312 236.90037536621094 626.2603759765625 237.15756225585938 626.2083129882812 237.56761169433594 C 626.1571655273438 237.97105407714844 626.1202392578125 238.26205444335938 626.0975952148438 238.44061279296875 C 625.9591674804688 239.53187561035156 625.5760498046875 240.56521606445312 624.9483032226562 241.54063415527344 C 624.320556640625 242.51605224609375 623.3717651367188 242.92320251464844 622.1019287109375 242.76211547851562 C 620.5675659179688 242.5674591064453 619.0414428710938 241.93704223632812 617.5235595703125 240.87088012695312 C 616.0056762695312 239.80470275878906 615.0152587890625 238.55343627929688 614.5523681640625 237.11709594726562 ZM 630.3604125976562 292.4390563964844 C 630.1961669921875 291.3890075683594 630.4342041015625 290.2773132324219 631.0745239257812 289.10394287109375 C 631.72265625 287.92529296875 632.7059326171875 287.27972412109375 634.0243530273438 287.167236328125 C 635.9148559570312 288.4549255371094 637.9503173828125 289.4481201171875 640.130859375 290.1467590332031 C 642.3179321289062 290.8466491699219 644.57080078125 291.3283996582031 646.8894653320312 291.59197998046875 C 649.2015991210938 291.85430908203125 651.52880859375 291.9328308105469 653.8710327148438 291.8275451660156 C 656.2133178710938 291.7222595214844 658.48486328125 291.50830078125 660.6856689453125 291.1856689453125 C 663.0692138671875 289.87982177734375 664.9266967773438 287.9396057128906 666.2579956054688 285.36505126953125 C 667.5892944335938 282.79046630859375 668.618896484375 279.13934326171875 669.3468017578125 274.41168212890625 C 670.0693969726562 269.6761779785156 670.59375 263.6973571777344 670.9197998046875 256.4752197265625 C 671.2471313476562 249.2465362548828 671.5884399414062 240.3775177001953 671.94384765625 229.86817932128906 C 671.99560546875 229.59979248046875 672.0960693359375 229.2016143798828 672.245361328125 228.6736602783203 C 672.3881225585938 228.14443969726562 672.4642333984375 227.6261444091797 672.4737548828125 227.11878967285156 C 672.47802734375 226.60360717773438 672.3947143554688 226.1903839111328 672.223876953125 225.87908935546875 C 672.0530395507812 225.5677947998047 671.76171875 225.5116424560547 671.3499755859375 225.7106475830078 C 669.7532348632812 227.724853515625 667.9183349609375 229.90025329589844 665.8453369140625 232.23681640625 C 663.7710571289062 234.57992553710938 661.5062866210938 236.6962127685547 659.051025390625 238.58567810058594 C 656.6010131835938 240.4829559326172 653.9989624023438 241.95375061035156 651.244873046875 242.99806213378906 C 648.489501953125 244.04891967773438 645.58984375 244.281005859375 642.5458984375 243.69432067871094 C 639.8619384765625 243.17701721191406 637.6626586914062 241.94178771972656 635.9479370117188 239.9886474609375 C 634.2345581054688 238.02896118164062 633.662353515625 235.5729522705078 634.2313842773438 232.62062072753906 C 634.6629028320312 230.38182067871094 635.6773681640625 227.654541015625 637.2748413085938 224.43875122070312 C 638.8735961914062 221.21641540527344 640.8446655273438 217.85877990722656 643.1880493164062 214.36582946777344 C 645.531494140625 210.87286376953125 648.1388549804688 207.45455932617188 651.01025390625 204.1108856201172 C 653.881591796875 200.7672119140625 656.7725830078125 197.79734802246094 659.6831665039062 195.20127868652344 C 662.600341796875 192.60646057128906 665.4521484375 190.57955932617188 668.2385864257812 189.12054443359375 C 671.0250854492188 187.6615447998047 673.5377197265625 187.1477813720703 675.7765502929688 187.57928466796875 C 676.67333984375 187.75213623046875 677.8279418945312 188.1376190185547 679.240234375 188.7357177734375 C 680.6591186523438 189.3350830078125 682.0018920898438 190.0827178955078 683.2685546875 190.9786376953125 C 684.5364990234375 191.86801147460938 685.6067504882812 192.8143310546875 686.4793090820312 193.81759643554688 C 687.3518676757812 194.82086181640625 687.6846923828125 195.85928344726562 687.477783203125 196.932861328125 L 685.3807983398438 207.8126220703125 L 681.8974609375 272.8589172363281 C 681.2073364257812 276.4396667480469 680.4786987304688 279.8500671386719 679.711669921875 283.0901184082031 C 678.951171875 286.3314514160156 677.78955078125 289.2408447265625 676.226806640625 291.8183288574219 C 674.6575317382812 294.3945617675781 672.5498657226562 296.5411376953125 669.90380859375 298.258056640625 C 667.2511596679688 299.97369384765625 663.69091796875 301.09686279296875 659.2230834960938 301.6275634765625 C 658.6345825195312 301.79248046875 657.4722900390625 301.79931640625 655.7362060546875 301.64801025390625 C 654.00537109375 301.5045166015625 652.0353393554688 301.26397705078125 649.825927734375 300.9264221191406 C 647.6152954101562 300.59539794921875 645.2881469726562 300.1468505859375 642.8444213867188 299.580810546875 C 640.3994750976562 299.02130126953125 638.1991577148438 298.39013671875 636.2434692382812 297.68731689453125 C 634.2943725585938 296.9857482910156 632.751953125 296.19964599609375 631.6162109375 295.3289489746094 C 630.4857177734375 294.4660949707031 630.067138671875 293.5027770996094 630.3604125976562 292.4390563964844 M 670.1151123046875 198.88209533691406 C 669.0289916992188 199.691162109375 667.5419921875 201.03060913085938 665.6539916992188 202.90042114257812 C 663.7606811523438 204.76242065429688 661.8048706054688 206.8432159423828 659.7865600585938 209.14279174804688 C 657.7603759765625 211.44764709472656 655.7395629882812 213.86557006835938 653.7241821289062 216.39654541015625 C 651.700927734375 218.93280029296875 650.0114135742188 221.32290649414062 648.655517578125 223.56686401367188 C 647.2931518554688 225.80953979492188 646.3366088867188 227.76043701171875 645.7860107421875 229.4195556640625 C 645.2288818359375 231.07740783691406 645.4104614257812 232.17832946777344 646.330810546875 232.72235107421875 C 648.3988037109375 232.10252380371094 650.7265625 230.8572235107422 653.3140258789062 228.9864501953125 C 655.9002685546875 227.12220764160156 658.4275512695312 224.96485900878906 660.8959350585938 222.514404296875 C 663.3643188476562 220.06393432617188 665.6271362304688 217.48220825195312 667.6844482421875 214.76919555664062 C 669.7351684570312 212.054931640625 671.28466796875 209.54615783691406 672.3328247070312 207.242919921875 C 673.3810424804688 204.93966674804688 673.8015747070312 203.0042724609375 673.594482421875 201.43675231933594 C 673.388671875 199.86268615722656 672.2288818359375 199.01113891601562 670.1151123046875 198.88209533691406 ZM 755.3526000976562 233.23226928710938 C 754.7432250976562 234.7654571533203 754.2078857421875 235.94216918945312 753.7466430664062 236.76242065429688 C 753.285400390625 237.58265686035156 752.6947021484375 238.27040100097656 751.974609375 238.82565307617188 C 751.2544555664062 239.38088989257812 750.3054809570312 239.90072631835938 749.1277465820312 240.3851318359375 C 747.9581909179688 240.86488342285156 746.35009765625 241.55567932128906 744.303466796875 242.45750427246094 C 742.2568359375 243.35934448242188 739.6998291015625 244.56996154785156 736.63232421875 246.08937072753906 C 733.5730590820312 247.6041259765625 729.8010864257812 249.63465881347656 725.31640625 252.18101501464844 C 723.5457153320312 253.11050415039062 721.7208251953125 254.07347106933594 719.8417358398438 255.0699005126953 C 717.9562377929688 256.0645751953125 716.0490112304688 256.88726806640625 714.1199951171875 257.5379943847656 C 712.1910400390625 258.1887512207031 710.252685546875 258.6225280761719 708.3050537109375 258.83935546875 C 706.3509521484375 259.0544128417969 704.4098510742188 258.89617919921875 702.4817504882812 258.3646240234375 C 698.7027587890625 257.32281494140625 696.2835693359375 255.28663635253906 695.2242431640625 252.256103515625 C 694.173095703125 249.22093200683594 694.1072998046875 246.03555297851562 695.02685546875 242.69998168945312 C 695.6328125 240.50198364257812 696.20556640625 238.6751708984375 696.7451782226562 237.21957397460938 C 697.29296875 235.75930786132812 698.1572875976562 233.9160614013672 699.3380737304688 231.6898193359375 C 698.6167602539062 230.54354858398438 697.9929809570312 229.5452117919922 697.466796875 228.69476318359375 C 696.94873046875 227.83966064453125 696.847412109375 226.84011840820312 697.1627807617188 225.69613647460938 C 697.453369140625 224.64212036132812 697.8875122070312 224.00802612304688 698.4652099609375 223.79385375976562 C 699.044677734375 223.57327270507812 699.68310546875 223.4899444580078 700.3804931640625 223.5438995361328 C 701.0732421875 223.58966064453125 701.7520751953125 223.61082458496094 702.4168701171875 223.60739135742188 C 703.0834350585938 223.5975341796875 703.6211547851562 223.36541748046875 704.0299682617188 222.9110565185547 C 704.3487548828125 222.431884765625 704.9423217773438 221.55821228027344 705.810546875 220.2900390625 C 706.6806030273438 219.0154266357422 707.5908813476562 217.68275451660156 708.5413208007812 216.29200744628906 C 709.4935913085938 214.89483642578125 710.4017333984375 213.5823211669922 711.2658081054688 212.35447692871094 C 712.1234130859375 211.12486267089844 712.711669921875 210.2704620361328 713.0304565429688 209.79129028320312 C 714.0585327148438 208.47035217285156 715.1570434570312 207.14462280273438 716.3259887695312 205.81411743164062 C 717.4967651367188 204.47718811035156 718.7590942382812 203.33493041992188 720.1129150390625 202.3873291015625 C 721.4603881835938 201.43795776367188 722.92431640625 200.75582885742188 724.5047607421875 200.3409423828125 C 726.085205078125 199.92605590820312 727.7976684570312 199.97286987304688 729.6422119140625 200.4813690185547 C 730.6962280273438 200.77194213867188 731.8583374023438 201.61099243164062 733.1286010742188 202.9984893798828 C 734.3988647460938 204.38597106933594 735.5499267578125 205.95498657226562 736.581787109375 207.7055206298828 C 737.6136474609375 209.4560546875 738.4052124023438 211.2129364013672 738.9564208984375 212.97618103027344 C 739.5158081054688 214.73475646972656 739.6502685546875 216.14105224609375 739.3596801757812 217.195068359375 C 738.9964599609375 218.51258850097656 738.3548583984375 219.63580322265625 737.4348754882812 220.56471252441406 C 736.5149536132812 221.49362182617188 735.4678344726562 222.29412841796875 734.293701171875 222.9662322998047 C 733.1148071289062 223.63014221191406 731.8894653320312 224.21206665039062 730.6174926757812 224.7119903564453 C 729.3455200195312 225.21192932128906 728.171875 225.6940155029297 727.0964965820312 226.15823364257812 C 727.012939453125 226.1352081298828 726.8154907226562 226.17413330078125 726.504150390625 226.27500915527344 C 726.1864013671875 226.37411499023438 725.9283447265625 226.4447479248047 725.72998046875 226.48687744140625 C 725.615234375 226.55206298828125 725.3651733398438 226.69403076171875 724.9797973632812 226.91282653808594 C 724.5863037109375 227.1362762451172 724.1640625 227.37600708007812 723.713134765625 227.6320343017578 C 723.26220703125 227.88807678222656 722.837890625 228.14797973632812 722.4401245117188 228.41175842285156 C 722.0341796875 228.68019104003906 721.7738037109375 228.84698486328125 721.6590576171875 228.9121551513672 C 721.3228759765625 229.10302734375 720.7031860351562 229.38168334960938 719.7999877929688 229.74815368652344 C 718.8985595703125 230.10818481445312 717.9163208007812 230.49783325195312 716.8533935546875 230.9170684814453 C 715.7904052734375 231.3363037109375 714.8081665039062 231.72593688964844 713.90673828125 232.08596801757812 C 713.0035400390625 232.4524383544922 712.3953857421875 232.6893310546875 712.0822143554688 232.796630859375 L 711.2623291015625 233.70126342773438 C 710.9913330078125 234.00689697265625 710.6253662109375 234.73239135742188 710.1644287109375 235.87774658203125 C 709.7080688476562 237.03128051757812 709.1844482421875 238.32876586914062 708.5933837890625 239.77020263671875 C 708.007080078125 241.21983337402344 707.4346313476562 242.69406127929688 706.876220703125 244.19288635253906 C 706.32421875 245.6934814453125 705.9144897460938 246.92901611328125 705.6469116210938 247.89947509765625 C 705.6239013671875 247.98301696777344 705.6449584960938 248.08218383789062 705.7101440429688 248.1969757080078 C 705.8358154296875 248.4183349609375 705.9436645507812 248.5414276123047 706.0336303710938 248.56622314453125 C 706.7341918945312 248.7593536376953 707.47705078125 248.63568115234375 708.2623901367188 248.19522094726562 C 709.0430297851562 247.74655151367188 709.8231811523438 247.48793029785156 710.602783203125 247.4193115234375 L 737.0654296875 233.71961975097656 L 744.761962890625 226.9102325439453 C 745.3690795898438 226.41372680664062 746.4116821289062 225.96812438964844 747.8897094726562 225.57342529296875 C 749.3742065429688 225.18048095703125 750.7814331054688 225.1431427001953 752.111328125 225.46136474609375 C 753.4412231445312 225.77960205078125 754.4893188476562 226.51803588867188 755.255615234375 227.67669677734375 C 756.0219116210938 228.83535766601562 756.0542602539062 230.68722534179688 755.3526000976562 233.23226928710938 M 729.1875 214.96128845214844 C 729.7283935546875 214.7300567626953 730.0504150390625 214.25177001953125 730.1536254882812 213.52642822265625 C 730.2649536132812 212.79644775390625 730.1940307617188 212.11302185058594 729.9408569335938 211.47616577148438 C 729.6876831054688 210.83929443359375 729.2734985351562 210.3724365234375 728.6984252929688 210.07557678222656 C 728.1185913085938 209.77052307128906 727.4562377929688 209.94061279296875 726.7113037109375 210.58583068847656 C 726.3504028320312 210.86666870117188 725.693603515625 211.44284057617188 724.7410888671875 212.31436157226562 C 723.7949829101562 213.18765258789062 722.8394165039062 214.08255004882812 721.8744506835938 214.99905395507812 C 720.9159545898438 215.91732788085938 720.1060180664062 216.71060180664062 719.444580078125 217.3788604736328 C 718.7896728515625 218.0488739013672 718.6178588867188 218.3334503173828 718.92919921875 218.23257446289062 L 729.1875 214.96128845214844 ZM 787.9266967773438 282.1296691894531 C 787.3977661132812 279.97235107421875 787.315185546875 277.2266540527344 787.6788940429688 273.89251708984375 C 788.0402221679688 270.5646057128906 788.5113525390625 267.0826416015625 789.0923461914062 263.4466552734375 C 789.6670532226562 259.8082275390625 790.277587890625 256.2802429199219 790.9240112304688 252.8626708984375 C 791.561767578125 249.4489288330078 791.9318237304688 246.66070556640625 792.0342407226562 244.49801635742188 C 792.142822265625 242.33775329589844 791.8643188476562 240.98191833496094 791.1986694335938 240.43052673339844 C 790.5330200195312 239.879150390625 789.1962890625 240.67991638183594 787.1884155273438 242.8328399658203 L 762.843017578125 272.6891784667969 C 761.9574584960938 273.7185974121094 761.1259765625 274.35064697265625 760.3484497070312 274.5853576660156 C 759.5709228515625 274.8200378417969 758.5046997070312 274.6745910644531 757.1497192382812 274.14898681640625 C 756.466064453125 273.8837890625 755.782958984375 273.49725341796875 755.1004028320312 272.9893798828125 C 754.4179077148438 272.4814758300781 753.8198852539062 271.88482666015625 753.3063354492188 271.1993713378906 C 752.7952270507812 270.5077209472656 752.41796875 269.7750244140625 752.1746215820312 269.0013427734375 C 751.93994140625 268.22381591796875 751.9273681640625 267.4359436035156 752.1369018554688 266.6376953125 C 752.7871704101562 265.71722412109375 753.7490234375 263.93798828125 755.0225830078125 261.3000183105469 C 756.2875366210938 258.6658630371094 757.6566772460938 255.57870483398438 759.1300048828125 252.03858947753906 C 760.5947265625 248.50228881835938 762.1143188476562 244.7691650390625 763.6888427734375 240.83924865722656 C 765.2657470703125 236.9031219482422 766.7002563476562 233.20494079589844 767.9924926757812 229.74472045898438 C 769.28466796875 226.2845001220703 770.3761596679688 223.2863006591797 771.2669677734375 220.75013732910156 C 772.151611328125 218.21157836914062 772.6986694335938 216.5431671142578 772.908203125 215.74490356445312 C 773.238525390625 214.89340209960938 773.5990600585938 214.028564453125 773.98974609375 213.15042114257812 C 774.3779907226562 212.2784881591797 774.8261108398438 211.5012664794922 775.333984375 210.81874084472656 C 775.8418579101562 210.13621520996094 776.4627685546875 209.66917419433594 777.19677734375 209.4176025390625 C 777.9331665039062 209.15980529785156 778.8949584960938 209.2611541748047 780.0820922851562 209.72164916992188 C 781.6981201171875 210.3485107421875 782.9444580078125 211.614990234375 783.8211669921875 213.5210418701172 C 784.6915893554688 215.42469787597656 784.8302612304688 217.14102172851562 784.2371826171875 218.67001342773438 C 783.3812866210938 220.87649536132812 782.4269409179688 223.02333068847656 781.3741455078125 225.1105499267578 C 780.3214111328125 227.19775390625 779.3670654296875 229.3446044921875 778.5111694335938 231.5510711669922 C 777.983154296875 232.91224670410156 777.538330078125 234.05899047851562 777.1766967773438 234.99131774902344 C 776.8126220703125 235.92984008789062 776.5386962890625 237.14288330078125 776.35498046875 238.63046264648438 C 776.8726196289062 238.0518341064453 777.7557373046875 237.02862548828125 779.00439453125 235.5608673095703 C 780.26171875 234.08929443359375 781.6137084960938 232.55792236328125 783.0604248046875 230.9667510986328 C 784.5046997070312 229.38180541992188 785.8470458984375 227.87530517578125 787.0874633789062 226.44723510742188 C 788.327880859375 225.01918029785156 789.2069091796875 224.0158233642578 789.7245483398438 223.43719482421875 C 790.9794311523438 221.9718475341797 792.5054321289062 220.68316650390625 794.3025512695312 219.5711669921875 C 796.0996704101562 218.45916748046875 798.0109252929688 218.1958770751953 800.0363159179688 218.78131103515625 C 801.341796875 219.19476318359375 802.377685546875 219.98988342285156 803.1439819335938 221.1666717529297 C 803.9102783203125 222.34344482421875 804.4369506835938 223.6954345703125 804.72412109375 225.22264099121094 C 805.01123046875 226.74984741210938 805.154052734375 228.27113342285156 805.152587890625 229.78651428222656 C 805.151123046875 231.3018798828125 805.0957641601562 232.57826232910156 804.9865112304688 233.6156463623047 L 799.5564575195312 268.02056884765625 L 799.2733764648438 284.6219177246094 C 799.32666015625 284.74267578125 799.278564453125 284.9957275390625 799.1290893554688 285.381103515625 C 798.9819946289062 285.7602233886719 798.8759155273438 286.0337219238281 798.810791015625 286.2015380859375 C 798.4130249023438 287.2270812988281 797.791748046875 288.1373596191406 796.9470825195312 288.9323425292969 C 796.1023559570312 289.7273254394531 795.0833740234375 289.89337158203125 793.8900146484375 289.43048095703125 C 792.447998046875 288.8711242675781 791.1192626953125 287.890869140625 789.9036865234375 286.4897766113281 C 788.6881103515625 285.0886535644531 788.0291137695312 283.6352844238281 787.9266967773438 282.1296691894531 ZM 811.6644897460938 279.4400634765625 C 812.4122924804688 276.7358093261719 813.9757690429688 273.905517578125 816.3548583984375 270.9491882324219 C 818.7430419921875 267.99017333984375 821.4981079101562 265.2076416015625 824.6201782226562 262.6015930175781 C 827.751220703125 259.9928894042969 831.1029052734375 257.7391662597656 834.6753540039062 255.8404541015625 C 838.2445678710938 253.94760131835938 841.609375 252.717529296875 844.769775390625 252.1502685546875 C 847.9302368164062 251.5830078125 850.7069702148438 251.8201446533203 853.0999755859375 252.86167907714844 C 855.4871215820312 253.9000244140625 857.1143188476562 256.1073913574219 857.9815673828125 259.48382568359375 C 857.940185546875 259.5599670410156 857.8701171875 259.77984619140625 857.7713012695312 260.1434326171875 C 857.6783447265625 260.51019287109375 857.4024658203125 261.2138366699219 856.9436645507812 262.25433349609375 C 856.475830078125 263.2975158691406 855.7724609375 264.73248291015625 854.8336181640625 266.5592041015625 C 853.894775390625 268.38592529296875 852.5775146484375 270.8606262207031 850.8818969726562 273.9832763671875 C 850.8779907226562 274.18597412109375 850.8360595703125 274.5007629394531 850.7559814453125 274.9276428222656 C 850.6849365234375 275.351806640625 850.6048583984375 275.64593505859375 850.5158081054688 275.8099670410156 C 849.7984008789062 276.558349609375 848.8901977539062 277.1272277832031 847.7911376953125 277.5166320800781 C 846.697998046875 277.9092102050781 845.6328735351562 277.8239440917969 844.595947265625 277.2608642578125 C 843.2308349609375 276.51959228515625 842.2487182617188 275.7018127441406 841.6495361328125 274.8074645996094 C 841.0476684570312 273.90411376953125 841.0040893554688 272.5035400390625 841.5187377929688 270.6058044433594 C 841.807373046875 270.45147705078125 842.117431640625 269.97125244140625 842.4490356445312 269.16510009765625 C 842.7864379882812 268.36212158203125 843.1134643554688 267.4245300292969 843.43017578125 266.3523864746094 C 843.752685546875 265.28338623046875 844.0957641601562 264.2255554199219 844.4592895507812 263.1788330078125 C 844.8228759765625 262.13214111328125 845.1573486328125 261.3275451660156 845.4627685546875 260.76513671875 C 845.3807373046875 260.7205810546875 845.2448120117188 260.7264404296875 845.0549926757812 260.78265380859375 C 844.8741455078125 260.8362121582031 844.7205200195312 260.8817138671875 844.5939331054688 260.919189453125 C 841.9303588867188 262.5831604003906 839.224853515625 264.5619201660156 836.4773559570312 266.85546875 C 833.7239990234375 269.1458435058594 831.2325439453125 271.6315002441406 829.0029296875 274.3125 C 826.7674560546875 276.99029541015625 824.9444580078125 279.8655090332031 823.5338745117188 282.9381408691406 C 822.13232421875 286.0080871582031 821.5364990234375 289.15899658203125 821.746337890625 292.390869140625 C 822.8712158203125 293.0016784667969 824.1653442382812 293.1051330566406 825.6288452148438 292.7012023925781 C 827.089111328125 292.3031311035156 828.3565063476562 291.87615966796875 829.430908203125 291.4203186035156 C 831.6644897460938 290.5621643066406 833.8969116210938 289.6502685546875 836.1281127929688 288.68463134765625 C 838.365234375 287.7221984863281 840.5443115234375 286.6220703125 842.6654663085938 285.3842468261719 C 843.5784912109375 284.84832763671875 844.3301391601562 284.3233642578125 844.9202880859375 283.8093566894531 C 845.5072631835938 283.30120849609375 846.0905151367188 282.9465637207031 846.6701049804688 282.74542236328125 C 847.2469482421875 282.53521728515625 847.8818359375 282.4627380371094 848.57470703125 282.5279541015625 C 849.267578125 282.5931396484375 850.1735229492188 282.9295654296875 851.29248046875 283.5372009277344 C 852.5755615234375 284.2339172363281 853.6127319335938 285.18780517578125 854.404052734375 286.3988952636719 C 855.2044067382812 287.6072692871094 855.2339477539062 288.8940124511719 854.49267578125 290.2590637207031 C 853.4937744140625 292.09869384765625 851.4203491210938 293.9541320800781 848.2724609375 295.8254699707031 C 845.1336669921875 297.694091796875 841.68701171875 299.2704162597656 837.9325561523438 300.5544128417969 C 834.1812744140625 301.8325500488281 830.49169921875 302.6548767089844 826.8637084960938 303.0213623046875 C 823.2416381835938 303.3910217285156 820.4287719726562 303.0318603515625 818.4251098632812 301.9438171386719 C 816.5034790039062 300.9003601074219 814.8501586914062 299.50946044921875 813.4651489257812 297.77117919921875 C 812.07421875 296.0296936035156 811.0651245117188 294.157958984375 810.4378051757812 292.1559143066406 C 809.8163452148438 290.1570739746094 809.5814819335938 288.0609436035156 809.7332153320312 285.8675231933594 C 809.88818359375 283.668212890625 810.5319213867188 281.5257568359375 811.6644897460938 279.4400634765625 ZM 845.0050659179688 364.2549743652344 C 846.0545043945312 362.644287109375 847.4173583984375 360.7592468261719 849.0936279296875 358.5998840332031 C 850.768798828125 356.4311218261719 852.5455322265625 354.1728210449219 854.4237670898438 351.82501220703125 C 856.302001953125 349.4771728515625 858.2276000976562 347.1074523925781 860.2005615234375 344.7159118652344 C 862.1683349609375 342.3201904296875 864.0205078125 340.1863098144531 865.7571411132812 338.31427001953125 L 868.8368530273438 334.4645690917969 C 868.873291015625 333.6826477050781 868.8587036132812 332.8257751464844 868.7930908203125 331.8939514160156 C 868.7181396484375 330.9631652832031 868.6998901367188 329.1983947753906 868.7384033203125 326.59967041015625 C 868.77685546875 324.00091552734375 868.9220581054688 320.2069396972656 869.1740112304688 315.21771240234375 C 869.4352416992188 310.2274475097656 869.9182739257812 303.3485107421875 870.623046875 294.5809020996094 C 870.3825073242188 291.8186950683594 870.4611206054688 289.7514953613281 870.8588256835938 288.3792419433594 C 871.2606811523438 287.00177001953125 871.7880249023438 286.0491027832031 872.4408569335938 285.521240234375 C 873.0988159179688 284.9975280761719 873.8422241210938 284.836669921875 874.6709594726562 285.03863525390625 C 875.50390625 285.23541259765625 876.2067260742188 285.5628356933594 876.7793579101562 286.02093505859375 C 878.2005615234375 287.1578674316406 879.2250366210938 288.5025329589844 879.8529052734375 290.05487060546875 C 880.480712890625 291.60723876953125 880.8555297851562 293.2517395019531 880.9773559570312 294.9884033203125 C 881.1085815429688 296.7239990234375 881.0784301757812 298.47991943359375 880.8868408203125 300.2561340332031 C 880.6942749023438 302.0229797363281 880.5277099609375 303.72528076171875 880.3871459960938 305.363037109375 C 880.3018188476562 306.3448486328125 880.179443359375 307.59161376953125 880.0202026367188 309.1033935546875 C 879.8650512695312 310.6099548339844 879.7224731445312 312.10089111328125 879.5923461914062 313.5762023925781 C 879.4663696289062 315.04632568359375 879.3497314453125 316.32330322265625 879.2425537109375 317.40716552734375 C 879.1353149414062 318.4909973144531 879.0816650390625 319.0329284667969 879.0816650390625 319.0329284667969 L 879.2566528320312 321.4395751953125 L 888.2208862304688 310.2340087890625 C 891.0694580078125 306.6732177734375 893.7722778320312 303.1452331542969 896.329345703125 299.6500244140625 C 898.895751953125 296.1537780761719 901.5740966796875 292.6617126464844 904.3643188476562 289.1737976074219 C 905.1597900390625 288.1794738769531 906.1702270507812 287.6474304199219 907.3956298828125 287.5776672363281 C 908.62109375 287.5079040527344 909.7018432617188 287.90716552734375 910.6378173828125 288.7754821777344 C 911.733154296875 289.8822326660156 912.4708251953125 290.8223876953125 912.850830078125 291.5959777832031 C 913.2298583984375 292.36016845703125 913.3980102539062 293.4252624511719 913.3553466796875 294.791259765625 C 913.2938842773438 296.0312805175781 912.818115234375 297.1703186035156 911.9279174804688 298.2083740234375 C 911.04296875 299.2505798339844 910.236572265625 300.2958984375 909.5088500976562 301.3443603515625 C 904.3853759765625 308.3357849121094 899.2218017578125 315.2652893066406 894.0181884765625 322.1328125 C 888.8145751953125 329.0003662109375 883.5078125 335.8153076171875 878.0980224609375 342.57769775390625 C 877.5181274414062 343.16387939453125 876.4452514648438 344.4356689453125 874.8793334960938 346.39306640625 C 873.3134765625 348.3504638671875 871.5487060546875 350.58843994140625 869.5851440429688 353.1070251464844 C 867.6309204101562 355.62457275390625 865.5892333984375 358.2514343261719 863.4600830078125 360.98760986328125 C 861.3350830078125 363.7185974121094 859.3933715820312 366.22052001953125 857.6348876953125 368.4933776855469 C 855.8805541992188 370.76104736328125 854.4338989257812 372.6387939453125 853.2948608398438 374.1266174316406 C 852.1652221679688 375.6134033203125 851.666015625 376.3495178222656 851.7971801757812 376.3349304199219 C 850.9434204101562 377.4021301269531 849.9418334960938 377.8857727050781 848.7924194335938 377.78582763671875 C 847.648193359375 377.6900329589844 846.54248046875 377.2153015136719 845.4752807617188 376.3615417480469 C 844.0488891601562 375.220458984375 843.1534423828125 374.1839904785156 842.7890625 373.2521667480469 C 842.4340209960938 372.31927490234375 842.3455200195312 371.3733825683594 842.5234985351562 370.41448974609375 C 842.7109375 369.45452880859375 843.0758056640625 368.491455078125 843.6182861328125 367.5252685546875 C 844.155517578125 366.5549011230469 844.6177368164062 365.46478271484375 845.0050659179688 364.2549743652344 Z" transform="matrix(1.0244430303573608, 0, 0, 1.0244430303573608, -13.129986834892406, 69.82669109044494) matrix(1.3405218124389648, 0, 0, 1.3405218124389648, 64.35044860839844, 116.87625122070312)" style="fill:#f7ffff;white-space:pre;color:#333;stroke-opacity:.8;stroke:#000;stroke-width:0;fill-opacity:1"/><g><path d="M177.5,324.5c-4.1-3.1-5.2-9.1-3.4-13.9s5.8-8.5,10.2-11.1c4.4-2.6,9.3-4.4,13.9-6.6c19.8-9.6,34.6-29,38.8-50.6 c4.1-21.7-2.5-45.1-17.4-61.4c5.3,9.5,5.1,21.1,0.4,30.9s-14.4,17.1-25.1,18.9c4-9.4,7.1-19.6,8.8-29.6c1.7-10,1-20.8-4-29.6 c-4.8-8.5-13.1-14.4-21.4-19.5c-8.3-5.1-17-10-23.6-17.2c-6.5-7.2-10.6-17.6-7.5-26.9c-16.3,14.8-27.9,35.1-32.1,56.7 c-4.2,21.6-1.2,44.5,8.3,64.3c-9.9-3.5-18.3-10.2-23.6-19.2s-7.4-20.1-5.6-30.5c-10.5,19-15.3,40.8-11.6,62.2 c1.9,11.1,6,22.2,14.1,30c4.8,4.6,10.9,7.8,16.8,11c5.9,3.2,11.9,6.4,16.6,11.2c4.7,4.7,8.2,11.2,7.7,17.9 c4.6-1.5,7.4-6.9,7.8-11.7c0.4-4.8-1.2-9.6-3.4-14c-2.1-4.4-4.8-8.5-6.6-13s-2.7-9.6-1.1-14.2c2.3-6.8,9.8-11.1,17-10.7 c7.2,0.4,13.7,5,17.8,11c2.5,3.7,4.1,8.2,3.2,12.5c-0.7,3.5-3.1,6.4-4.9,9.6c-4.1,7.1-5.4,15.7-3.8,23.7 C165.5,312.5,171,319.6,177.5,324.5z" transform="matrix(1.0244430303573608, 0, 0, 1.0244430303573608, -13.129986834892406, 69.82669109044494) matrix(0.3939177691936493, 0, 0, 0.3939177691936493, -233.39019775390625, 387.2352600097656) matrix(1, 0, 0, 1, 74.17530059814464, 193.16485595703128)" style="fill:#333;opacity:1"/></g><g><path d="M177.5,324.5c-4.1-3.1-5.2-9.1-3.4-13.9s5.8-8.5,10.2-11.1c4.4-2.6,9.3-4.4,13.9-6.6c19.8-9.6,34.6-29,38.8-50.6 c4.1-21.7-2.5-45.1-17.4-61.4c5.3,9.5,5.1,21.1,0.4,30.9s-14.4,17.1-25.1,18.9c4-9.4,7.1-19.6,8.8-29.6c1.7-10,1-20.8-4-29.6 c-4.8-8.5-13.1-14.4-21.4-19.5c-8.3-5.1-17-10-23.6-17.2c-6.5-7.2-10.6-17.6-7.5-26.9c-16.3,14.8-27.9,35.1-32.1,56.7 c-4.2,21.6-1.2,44.5,8.3,64.3c-9.9-3.5-18.3-10.2-23.6-19.2s-7.4-20.1-5.6-30.5c-10.5,19-15.3,40.8-11.6,62.2 c1.9,11.1,6,22.2,14.1,30c4.8,4.6,10.9,7.8,16.8,11c5.9,3.2,11.9,6.4,16.6,11.2c4.7,4.7,8.2,11.2,7.7,17.9 c4.6-1.5,7.4-6.9,7.8-11.7c0.4-4.8-1.2-9.6-3.4-14c-2.1-4.4-4.8-8.5-6.6-13s-2.7-9.6-1.1-14.2c2.3-6.8,9.8-11.1,17-10.7 c7.2,0.4,13.7,5,17.8,11c2.5,3.7,4.1,8.2,3.2,12.5c-0.7,3.5-3.1,6.4-4.9,9.6c-4.1,7.1-5.4,15.7-3.8,23.7 C165.5,312.5,171,319.6,177.5,324.5z" transform="matrix(1.0244430303573608, 0, 0, 1.0244430303573608, -13.129986834892406, 69.82669109044494) matrix(1.5249743461608887, 0, 0, 1.5249743461608887, 356.4905700683593, -331.1130065917969) matrix(1, 0, 0, 1, 74.17530059814464, 193.16485595703128)" style="fill:#ff5447;opacity:1;stroke:#ff2640;stroke-opacity:1;stroke-width:9"/></g></g></svg>